<svg width="1125" height="702" viewBox="0 0 1125 702" fill="none" xmlns="http://www.w3.org/2000/svg">
<path d="M1124.76 350.579C885.675 350.579 823.94 226.077 1017.34 133.961C823.882 226.077 662.293 149.094 736.18 0.0576172C662.293 149.094 462.527 149.094 388.64 0.0576172C462.527 149.094 300.938 226.077 107.478 133.961C300.938 226.019 239.202 350.579 0.114258 350.579C239.202 350.579 300.938 475.081 107.535 567.197C300.995 475.081 462.585 552.064 388.697 701.1C462.585 552.064 662.35 552.064 736.238 701.1C662.35 552.064 823.94 475.081 1017.4 567.197C823.94 475.081 885.675 350.579 1124.76 350.579Z" fill="white"/>
<path d="M1119.89 350.005C1118.29 349.833 1116.34 349.661 1114.04 349.432C1111.75 349.203 1109.11 348.859 1106.13 348.572C1103.15 348.286 1099.89 347.885 1096.33 347.426C1092.78 347.025 1088.94 346.509 1084.81 345.993C1082.75 345.764 1080.63 345.42 1078.45 345.133C1076.27 344.846 1074.03 344.503 1071.74 344.159C1069.45 343.815 1067.1 343.413 1064.69 343.07C1062.28 342.726 1059.88 342.267 1057.35 341.809C1056.09 341.579 1054.83 341.407 1053.57 341.178C1052.31 340.949 1051.05 340.719 1049.73 340.49C1047.15 339.974 1044.51 339.516 1041.88 338.942C1036.55 337.853 1031.04 336.707 1025.48 335.331C1014.3 332.637 1002.61 329.37 990.86 325.3C989.37 324.841 987.937 324.268 986.447 323.695C985.014 323.122 983.523 322.606 982.033 322.033C979.11 320.829 976.186 319.74 973.263 318.421C967.473 315.899 961.741 313.09 956.181 309.995C945.061 303.804 934.571 296.295 926.374 287.124C922.247 282.595 918.75 277.608 916.228 272.335L915.311 270.328C915.139 269.985 915.024 269.641 914.852 269.354L914.451 268.322L913.648 266.316C913.362 265.628 913.247 264.94 913.018 264.252C912.846 263.565 912.559 262.877 912.387 262.189L911.929 260.068L911.699 259.036C911.642 258.692 911.585 258.348 911.527 257.947L911.241 255.826C911.126 255.138 911.126 254.393 911.069 253.705L910.954 251.584V249.463L910.897 248.374V247.858L911.012 247.343C911.183 244.476 911.585 241.61 912.215 238.802C913.419 233.127 915.54 227.624 918.062 222.35C920.642 217.077 923.737 212.09 927.176 207.389C927.979 206.186 928.896 205.039 929.813 203.893C930.673 202.746 931.533 201.6 932.507 200.511C933.424 199.422 934.341 198.333 935.259 197.243C936.233 196.212 937.15 195.123 938.125 194.091C938.583 193.575 939.042 193.059 939.558 192.543C940.074 192.027 940.532 191.511 941.048 191.053C942.023 190.078 942.997 189.046 943.971 188.072C944.946 187.098 945.978 186.18 946.952 185.206C947.927 184.289 948.901 183.314 949.876 182.397C953.831 178.729 957.786 175.347 961.684 172.194C965.524 168.984 969.422 166.061 973.091 163.309C974.925 161.933 976.759 160.615 978.536 159.297C980.313 158.036 982.09 156.832 983.753 155.628C984.612 155.055 985.415 154.424 986.217 153.908C987.02 153.335 987.88 152.819 988.682 152.246C990.287 151.157 991.835 150.125 993.325 149.151C996.306 147.202 999.115 145.425 1001.58 143.82C1004.1 142.272 1006.34 140.839 1008.29 139.578C1010.29 138.374 1011.95 137.342 1013.33 136.483C1016.08 134.763 1017.52 133.903 1017.52 133.903C1017.52 133.903 1015.91 134.476 1012.87 135.508C1011.38 136.024 1009.49 136.712 1007.31 137.457C1005.13 138.202 1002.61 139.062 999.803 139.979C996.994 140.896 993.898 141.928 990.459 143.017C987.077 144.049 983.409 145.253 979.453 146.457C975.498 147.603 971.314 148.921 966.9 150.068C962.486 151.329 957.786 152.533 952.914 153.736C950.449 154.31 947.984 154.94 945.462 155.513C942.94 156.087 940.303 156.66 937.666 157.233C935.029 157.749 932.335 158.322 929.584 158.838C926.832 159.354 924.081 159.813 921.272 160.328C918.463 160.787 915.597 161.246 912.674 161.704C909.75 162.105 906.827 162.507 903.846 162.908C902.356 163.08 900.866 163.252 899.375 163.424C897.885 163.596 896.395 163.825 894.847 163.94C891.809 164.226 888.771 164.57 885.675 164.742C884.128 164.857 882.58 164.971 881.032 165.086C879.485 165.143 877.937 165.258 876.332 165.315C873.179 165.487 870.027 165.545 866.874 165.602C865.269 165.659 863.721 165.602 862.116 165.602C860.511 165.602 858.906 165.602 857.301 165.545C855.696 165.487 854.091 165.487 852.486 165.43C850.881 165.373 849.276 165.258 847.671 165.201L845.264 165.086C844.461 165.029 843.659 164.971 842.856 164.914C841.251 164.8 839.646 164.628 838.041 164.513C834.831 164.112 831.621 163.825 828.411 163.366C825.201 162.965 821.991 162.392 818.839 161.819L814.081 160.844C813.278 160.672 812.476 160.5 811.731 160.328L809.38 159.755C803.132 158.265 796.942 156.431 790.923 154.252C784.961 152.017 779.172 149.495 773.669 146.514C772.293 145.769 770.918 145.081 769.599 144.221L767.593 143.017L766.618 142.444C766.275 142.215 765.988 142.043 765.644 141.814C764.383 140.954 763.065 140.151 761.804 139.291C760.6 138.374 759.339 137.514 758.135 136.597C753.32 132.929 749.021 128.802 745.123 124.445C737.385 115.675 731.71 105.758 728.213 95.4977C726.436 90.3961 725.29 85.1798 724.373 80.0782C724.201 78.8172 724.029 77.4987 723.857 76.2377L723.742 75.2632L723.685 74.2888C723.627 73.6582 723.57 73.0277 723.513 72.3972C723.226 69.875 723.226 67.4102 723.112 65.0027C723.054 63.7989 723.112 62.5952 723.112 61.3914C723.112 60.1877 723.111 58.9839 723.169 57.8375C723.341 55.4873 723.398 53.1944 723.627 50.9589C723.742 49.8125 723.857 48.7233 723.971 47.6342C724.086 46.5451 724.258 45.456 724.43 44.4242C724.602 43.3351 724.716 42.3033 724.888 41.2715C725.06 40.2397 725.232 39.208 725.404 38.2335C726.837 30.2658 728.614 23.3299 730.334 17.7124C730.735 16.2793 731.136 14.9609 731.538 13.6999C731.939 12.4388 732.34 11.2924 732.684 10.2033C733.028 9.11416 733.372 8.08234 733.659 7.16519C734.003 6.24805 734.289 5.38825 734.576 4.64307C735.665 1.66235 736.238 0.0573426 736.238 0.0573426C736.238 0.0573426 735.321 1.49039 733.544 4.1845C733.085 4.87236 732.627 5.61752 732.111 6.42002C731.538 7.22252 730.965 8.13969 730.277 9.05683C728.958 10.9484 727.525 13.184 725.748 15.5342C722.309 20.3492 717.895 26.024 712.564 32.2721C707.233 38.4628 700.871 45.1694 693.476 51.876C691.585 53.5383 689.75 55.258 687.744 56.863C686.77 57.6655 685.738 58.5253 684.763 59.3852C683.732 60.1877 682.7 60.9902 681.611 61.85C679.547 63.5123 677.312 65.1173 675.076 66.7223C673.987 67.5821 672.84 68.3273 671.637 69.1298C670.49 69.9323 669.344 70.7348 668.14 71.48C658.682 77.6707 648.192 83.4029 636.9 88.1606C625.607 92.9756 613.513 96.7588 600.959 99.3383C594.711 100.599 588.291 101.631 581.871 102.262C575.451 102.892 568.917 103.236 562.439 103.236C549.427 103.236 536.472 101.918 523.919 99.281C511.366 96.7015 499.271 92.8609 487.978 88.1032C476.686 83.3456 466.196 77.6134 456.738 71.4227C455.534 70.6775 454.388 69.8177 453.242 69.0725C452.095 68.27 450.949 67.5248 449.802 66.665C447.567 65.06 445.389 63.455 443.268 61.7927C442.236 60.9902 441.147 60.1303 440.115 59.3278C439.083 58.468 438.109 57.6655 437.134 56.8057C435.128 55.2007 433.294 53.4237 431.402 51.8187C424.008 45.1121 417.645 38.4628 412.314 32.2147C406.983 26.024 402.569 20.3492 399.13 15.4768C397.353 13.0693 395.92 10.8911 394.602 8.99949C393.971 8.02503 393.341 7.16522 392.767 6.36271C392.251 5.56021 391.736 4.7577 391.334 4.12716C389.557 1.43305 388.64 0 388.64 0C388.64 0 389.213 1.605 390.303 4.58572C390.589 5.3309 390.876 6.19074 391.22 7.10789C391.506 8.02503 391.85 9.05681 392.194 10.1459C392.538 11.235 392.939 12.3815 393.341 13.6426C393.742 14.9036 394.143 16.222 394.544 17.6551C396.264 23.2726 398.041 30.2085 399.474 38.1762C399.646 39.1506 399.875 40.1824 399.99 41.2142C400.162 42.246 400.276 43.2778 400.448 44.3669C400.563 45.456 400.792 46.4878 400.907 47.5769C401.022 48.666 401.136 49.7551 401.251 50.9016C401.538 53.1371 401.595 55.43 401.71 57.7802C401.824 58.9266 401.767 60.1303 401.767 61.3341C401.767 62.5378 401.824 63.7416 401.767 64.9454C401.652 67.3529 401.652 69.875 401.366 72.3398C401.308 72.9704 401.251 73.6009 401.194 74.2314L401.136 75.2059L401.022 76.1804C400.85 77.4414 400.678 78.7025 400.506 80.0209C399.646 85.1225 398.442 90.2815 396.665 95.4404C393.169 105.701 387.494 115.675 379.755 124.388C375.857 128.744 371.558 132.814 366.743 136.54C365.54 137.457 364.279 138.317 363.075 139.234C361.814 140.094 360.553 140.896 359.234 141.756C358.89 141.986 358.604 142.215 358.26 142.387L357.285 142.96L355.279 144.164C353.961 144.966 352.585 145.711 351.209 146.457C345.706 149.437 339.917 151.902 333.955 154.195C327.994 156.431 321.803 158.207 315.498 159.698L313.148 160.271C312.345 160.443 311.6 160.672 310.798 160.787L306.04 161.761C302.83 162.277 299.677 162.908 296.467 163.309C293.257 163.768 290.047 164.112 286.837 164.456C285.232 164.57 283.627 164.742 282.022 164.857C281.22 164.914 280.417 164.971 279.615 165.029L277.207 165.143C275.602 165.201 273.997 165.315 272.392 165.373C270.787 165.43 269.182 165.43 267.577 165.487C265.972 165.545 264.367 165.545 262.762 165.545C261.157 165.545 259.552 165.602 258.004 165.545C254.852 165.43 251.699 165.43 248.546 165.258C246.999 165.201 245.394 165.086 243.846 165.029C242.298 164.914 240.751 164.8 239.203 164.685C236.108 164.513 233.069 164.169 230.031 163.882C228.484 163.768 226.993 163.538 225.503 163.366C224.013 163.194 222.522 163.023 221.032 162.851C218.051 162.449 215.128 162.048 212.204 161.647C209.281 161.188 206.472 160.73 203.606 160.271C200.797 159.755 197.989 159.297 195.295 158.781C192.543 158.208 189.849 157.692 187.212 157.176C184.575 156.603 181.996 156.029 179.416 155.456C176.894 154.826 174.372 154.252 171.965 153.679C167.092 152.475 162.392 151.272 157.978 150.011C153.507 148.864 149.38 147.546 145.425 146.399C141.47 145.196 137.801 144.049 134.419 142.96C131.037 141.871 127.942 140.839 125.076 139.922C122.267 138.947 119.802 138.088 117.567 137.4C115.388 136.655 113.554 135.967 112.006 135.451C108.968 134.419 107.363 133.846 107.363 133.846C107.363 133.846 108.796 134.763 111.548 136.425C112.923 137.285 114.586 138.317 116.592 139.521C118.541 140.782 120.777 142.158 123.299 143.762C125.821 145.368 128.572 147.144 131.553 149.093C133.043 150.068 134.591 151.157 136.196 152.189C136.999 152.705 137.801 153.278 138.661 153.851C139.463 154.424 140.323 154.998 141.126 155.571C142.788 156.774 144.565 157.978 146.342 159.239C148.119 160.558 149.896 161.876 151.788 163.252C155.456 166.061 159.297 168.927 163.194 172.137C167.092 175.289 171.048 178.729 175.003 182.34C176.035 183.2 176.952 184.174 177.926 185.149C178.901 186.066 179.875 187.04 180.907 188.015C181.881 188.989 182.856 190.021 183.83 190.995C184.289 191.511 184.805 191.97 185.321 192.486C185.779 193.002 186.238 193.518 186.754 194.033C187.671 195.065 188.645 196.154 189.62 197.186C190.537 198.275 191.454 199.364 192.371 200.454C193.346 201.543 194.205 202.689 195.065 203.835C195.925 204.982 196.842 206.128 197.645 207.332C201.084 212.033 204.179 217.019 206.759 222.293C209.338 227.567 211.402 233.069 212.606 238.744C213.236 241.553 213.637 244.419 213.809 247.285L213.924 247.801V248.317L213.867 249.406V251.527L213.695 253.648C213.637 254.336 213.637 255.081 213.523 255.769L213.236 257.89C213.179 258.234 213.179 258.578 213.064 258.979L212.835 260.011L212.376 262.132C212.204 262.819 211.975 263.507 211.746 264.195C211.517 264.883 211.345 265.571 211.115 266.259L210.313 268.265L209.912 269.297C209.797 269.641 209.625 269.985 209.453 270.271L208.536 272.277C206.014 277.551 202.46 282.538 198.39 287.066C190.193 296.238 179.703 303.747 168.583 309.938C163.023 313.033 157.29 315.842 151.501 318.364C148.635 319.682 145.654 320.771 142.731 321.975C141.24 322.548 139.807 323.064 138.317 323.638C136.827 324.211 135.394 324.727 133.903 325.243C122.152 329.312 110.516 332.58 99.2809 335.274C93.6634 336.65 88.2179 337.796 82.887 338.885C80.2502 339.458 77.6134 339.917 75.0339 340.433C73.7155 340.662 72.4545 340.891 71.1934 341.121C69.9323 341.35 68.6712 341.579 67.4102 341.751C64.888 342.152 62.4805 342.668 60.073 343.012C57.6655 343.413 55.3153 343.757 53.0224 344.101C50.7296 344.445 48.494 344.732 46.3158 345.076C44.1376 345.362 42.0167 345.706 39.9531 345.936C35.826 346.452 31.9854 346.967 28.4315 347.369C24.8776 347.77 21.6102 348.171 18.6295 348.515C15.6488 348.859 13.012 349.146 10.7191 349.375C8.42627 349.604 6.42001 349.833 4.87233 349.948C1.66233 350.292 0 350.464 0 350.464C0 350.464 1.71965 350.636 4.87233 350.98C6.47734 351.152 8.42627 351.324 10.7765 351.553C13.0693 351.782 15.7061 352.069 18.6868 352.413C21.6676 352.7 24.9349 353.101 28.4888 353.559C32.0428 353.961 35.8833 354.477 40.0104 354.992C42.074 355.222 44.1949 355.566 46.3731 355.852C48.5514 356.139 50.7869 356.483 53.0798 356.827C55.3726 357.171 57.7228 357.572 60.1303 357.916C62.5378 358.26 64.9453 358.718 67.4675 359.177C68.7285 359.406 69.9896 359.578 71.2507 359.807C72.5118 360.037 73.7729 360.266 75.0912 360.495C77.6707 361.011 80.3075 361.47 82.9443 362.043C84.2627 362.33 85.6384 362.616 86.9568 362.903C87.6447 363.017 88.3325 363.189 89.0204 363.304C89.7082 363.476 90.3961 363.591 91.084 363.763C92.4597 364.049 93.8354 364.393 95.2111 364.68C96.5868 364.966 98.0199 365.31 99.3956 365.654C110.573 368.348 122.267 371.616 134.018 375.686C135.508 376.144 136.941 376.717 138.432 377.291C139.865 377.864 141.355 378.38 142.845 378.953C145.769 380.157 148.692 381.246 151.616 382.564C157.405 385.086 163.137 387.895 168.697 390.99C174.258 394.086 179.646 397.525 184.69 401.308C189.734 405.091 194.435 409.276 198.505 413.862C202.574 418.39 206.128 423.377 208.65 428.651C211.173 433.924 212.892 439.484 213.58 445.159C213.695 445.847 213.695 446.592 213.752 447.28L213.867 449.401L213.809 451.522V452.611V453.127L213.752 453.643C213.58 456.509 213.236 459.375 212.606 462.184C211.402 467.859 209.338 473.361 206.759 478.635C204.179 483.909 201.084 488.896 197.645 493.596C196.842 494.8 195.925 495.946 195.065 497.093C194.205 498.239 193.346 499.385 192.371 500.475C191.454 501.564 190.537 502.653 189.62 503.742C188.645 504.774 187.728 505.863 186.754 506.895C186.295 507.41 185.837 507.926 185.321 508.442C184.805 508.958 184.346 509.474 183.83 509.933C182.856 510.907 181.881 511.939 180.907 512.913C179.932 513.888 178.901 514.805 177.926 515.779C176.952 516.697 175.977 517.671 175.003 518.588C171.048 522.257 167.092 525.639 163.194 528.791C159.354 532.001 155.456 534.925 151.788 537.676C149.953 539.052 148.119 540.37 146.342 541.689C144.565 542.95 142.788 544.154 141.126 545.357C140.266 545.931 139.463 546.561 138.661 547.077C137.858 547.65 136.999 548.166 136.196 548.739C134.591 549.828 133.043 550.86 131.553 551.835C128.572 553.784 125.763 555.561 123.299 557.166C120.777 558.713 118.541 560.146 116.535 561.407C114.586 562.611 112.866 563.643 111.49 564.503C108.739 566.222 107.306 567.082 107.306 567.082C107.306 567.082 108.911 566.509 111.949 565.477C113.439 564.961 115.331 564.273 117.509 563.528C119.687 562.783 122.21 561.923 125.018 561.006C127.827 560.089 130.922 559.057 134.362 557.968C137.744 556.936 141.412 555.733 145.367 554.529C149.323 553.382 153.507 552.121 157.921 550.917C162.335 549.656 167.035 548.453 171.907 547.249C174.372 546.676 176.837 546.045 179.359 545.472C181.881 544.899 184.518 544.326 187.155 543.752C189.792 543.236 192.486 542.663 195.237 542.147C197.989 541.631 200.74 541.173 203.549 540.657C214.841 538.708 226.764 537.16 239.146 536.243C240.693 536.129 242.241 536.014 243.789 535.899C245.336 535.842 246.884 535.727 248.489 535.67C251.642 535.498 254.794 535.441 257.947 535.383C259.552 535.326 261.1 535.383 262.705 535.383C264.31 535.383 265.915 535.383 267.52 535.441C269.125 535.498 270.73 535.498 272.335 535.555C273.94 535.613 275.545 535.727 277.15 535.785L279.557 535.899C280.36 535.957 281.162 536.014 281.965 536.071C283.57 536.186 285.175 536.358 286.78 536.472C289.99 536.874 293.2 537.16 296.41 537.619C299.62 538.02 302.83 538.593 305.982 539.167L310.74 540.141C312.345 540.428 313.893 540.886 315.441 541.23C321.689 542.721 327.879 544.555 333.898 546.733C336.879 547.88 339.802 549.026 342.726 550.344C343.471 550.688 344.159 550.975 344.904 551.319L347.025 552.351L349.146 553.382C349.833 553.726 350.521 554.128 351.209 554.471C352.585 555.217 353.961 555.905 355.279 556.764L357.285 557.968C357.973 558.369 358.604 558.771 359.234 559.172C360.495 560.032 361.814 560.834 363.075 561.694C364.279 562.611 365.54 563.471 366.743 564.388C367.89 565.363 369.094 566.28 370.24 567.254C371.329 568.229 372.475 569.26 373.565 570.235C374.138 570.693 374.596 571.267 375.17 571.783C375.686 572.298 376.201 572.814 376.775 573.33C377.29 573.846 377.806 574.362 378.322 574.935C378.838 575.451 379.297 576.024 379.813 576.54C387.551 585.31 393.226 595.227 396.723 605.488C398.5 610.589 399.646 615.806 400.563 620.907C400.735 622.168 400.907 623.487 401.079 624.748L401.194 625.722L401.251 626.697C401.308 627.327 401.366 627.958 401.423 628.588C401.71 631.11 401.71 633.575 401.824 635.983C401.881 637.186 401.824 638.39 401.824 639.594C401.824 640.798 401.824 642.001 401.767 643.148C401.71 644.294 401.652 645.498 401.538 646.645C401.48 647.218 401.48 647.791 401.423 648.364C401.366 648.937 401.308 649.511 401.251 650.026C401.136 651.173 401.022 652.262 400.907 653.351C400.792 654.44 400.62 655.529 400.448 656.561C400.276 657.65 400.162 658.682 399.99 659.714C399.818 660.746 399.646 661.777 399.474 662.752C399.13 664.758 398.786 666.707 398.328 668.541C398.098 669.459 397.926 670.376 397.697 671.293C397.468 672.21 397.353 673.07 397.066 673.93C396.608 675.649 396.207 677.254 395.748 678.859C395.347 680.407 394.888 681.897 394.43 683.33C394.028 684.763 393.627 686.082 393.226 687.343C392.825 688.604 392.423 689.75 392.079 690.839C391.736 691.929 391.392 692.96 391.105 693.878C390.761 694.795 390.474 695.654 390.188 696.4C389.099 699.38 388.526 700.985 388.526 700.985C388.526 700.985 389.443 699.552 391.22 696.858C391.678 696.17 392.137 695.425 392.653 694.623C393.226 693.82 393.799 692.903 394.487 691.986C395.805 690.094 397.238 687.859 399.015 685.509C402.455 680.694 406.868 675.019 412.199 668.771C417.53 662.58 423.893 655.873 431.287 649.167C433.179 647.504 435.013 645.785 437.02 644.18C437.994 643.377 439.026 642.517 440 641.658C441.032 640.855 442.064 640.053 443.153 639.193C445.217 637.53 447.452 635.925 449.688 634.32C450.777 633.461 451.923 632.715 453.127 631.913C454.273 631.11 455.42 630.308 456.624 629.563C466.082 623.372 476.571 617.64 487.864 612.882C499.156 608.067 511.251 604.284 523.804 601.704C530.052 600.443 536.473 599.412 542.893 598.781C549.313 598.15 555.847 597.807 562.325 597.807C575.336 597.807 588.291 599.125 600.845 601.762C613.398 604.341 625.493 608.182 636.785 612.939C648.078 617.697 658.567 623.429 668.025 629.62C669.229 630.365 670.376 631.225 671.522 631.97C672.669 632.773 673.815 633.518 674.961 634.378C677.197 635.983 679.375 637.588 681.496 639.25C682.528 640.053 683.617 640.912 684.649 641.715C685.68 642.575 686.655 643.377 687.629 644.237C689.636 645.842 691.47 647.619 693.362 649.224C700.756 655.931 707.119 662.58 712.45 668.828C717.781 675.019 722.194 680.694 725.634 685.566C727.411 687.973 728.844 690.152 730.162 692.043C730.793 693.018 731.423 693.878 731.996 694.68C732.512 695.482 733.028 696.285 733.429 696.916C735.206 699.61 736.123 701.043 736.123 701.043C736.123 701.043 735.55 699.438 734.461 696.457C734.174 695.712 733.888 694.852 733.544 693.935C733.257 693.018 732.913 691.986 732.57 690.897C732.226 689.808 731.824 688.661 731.423 687.4C731.022 686.139 730.621 684.821 730.219 683.388C729.818 681.955 729.302 680.522 728.901 678.917C728.5 677.369 728.041 675.707 727.583 673.987C727.353 673.127 727.181 672.267 726.952 671.35C726.723 670.433 726.551 669.573 726.321 668.599C725.863 666.764 725.576 664.815 725.175 662.809C725.003 661.835 724.774 660.803 724.659 659.771C724.487 658.739 724.372 657.708 724.201 656.618C724.086 655.529 723.857 654.498 723.742 653.409C723.627 652.319 723.513 651.23 723.398 650.084C723.341 649.511 723.283 648.937 723.226 648.422C723.169 647.848 723.169 647.275 723.112 646.702C723.054 645.555 722.997 644.409 722.882 643.205C722.768 642.059 722.825 640.855 722.825 639.651C722.825 638.448 722.768 637.244 722.825 636.04C722.94 633.633 722.94 631.11 723.226 628.646C723.283 628.015 723.341 627.385 723.398 626.754L723.455 625.78L723.57 624.805C723.742 623.544 723.914 622.283 724.086 620.964C724.946 615.863 726.149 610.704 727.926 605.545C731.423 595.284 737.098 585.31 744.836 576.598C745.352 576.082 745.811 575.508 746.327 574.993C746.843 574.477 747.301 573.904 747.874 573.388C748.39 572.872 748.906 572.356 749.479 571.84C749.995 571.324 750.511 570.751 751.084 570.292C752.173 569.318 753.32 568.286 754.409 567.312C755.555 566.394 756.759 565.42 757.906 564.445C759.109 563.528 760.37 562.668 761.574 561.751C762.835 560.891 764.096 560.089 765.415 559.229C766.045 558.771 766.733 558.369 767.364 558.025L769.37 556.822C770.688 556.019 772.064 555.274 773.44 554.529C774.128 554.185 774.815 553.784 775.503 553.44L777.624 552.408L779.745 551.376C780.433 551.032 781.178 550.746 781.923 550.402C784.789 549.083 787.77 547.937 790.751 546.79C796.712 544.555 802.903 542.778 809.208 541.288C810.813 540.944 812.361 540.485 813.909 540.198L818.667 539.224C821.877 538.708 825.029 538.078 828.239 537.676C831.449 537.218 834.659 536.931 837.869 536.53C839.474 536.415 841.079 536.243 842.684 536.129C843.487 536.071 844.289 536.014 845.092 535.957L847.499 535.842C849.104 535.785 850.709 535.67 852.314 535.613C853.919 535.555 855.524 535.555 857.129 535.498C858.734 535.441 860.339 535.441 861.944 535.441C863.549 535.441 865.154 535.383 866.702 535.441C869.855 535.555 873.007 535.555 876.16 535.727C877.708 535.785 879.313 535.899 880.86 535.957C882.408 536.071 883.956 536.186 885.503 536.3C897.885 537.218 909.808 538.765 921.1 540.714C923.909 541.23 926.718 541.689 929.412 542.205C932.163 542.778 934.857 543.294 937.494 543.81C940.131 544.383 942.71 544.956 945.29 545.529C947.812 546.16 950.334 546.733 952.742 547.306C957.614 548.51 962.314 549.714 966.728 550.975C971.199 552.121 975.326 553.44 979.281 554.586C983.237 555.79 986.905 556.936 990.287 558.025C993.669 559.115 996.765 560.146 999.631 561.063C1002.44 562.038 1004.96 562.898 1007.14 563.586C1009.32 564.331 1011.15 565.019 1012.7 565.534C1015.74 566.566 1017.34 567.14 1017.34 567.14C1017.34 567.14 1015.91 566.222 1013.16 564.56C1011.78 563.7 1010.12 562.668 1008.11 561.465C1006.17 560.204 1003.93 558.828 1001.35 557.223C998.828 555.618 996.077 553.841 993.096 551.892C991.606 550.918 990.058 549.828 988.453 548.797C987.65 548.281 986.848 547.708 985.988 547.134C985.186 546.561 984.326 545.988 983.523 545.415C981.861 544.211 980.084 543.007 978.307 541.746C976.53 540.428 974.753 539.109 972.862 537.734C969.193 534.982 965.352 532.059 961.454 528.849C957.557 525.696 953.601 522.257 949.646 518.646C948.615 517.786 947.697 516.811 946.723 515.837C945.748 514.92 944.774 513.945 943.742 512.971C942.768 511.996 941.793 510.964 940.819 509.99C940.36 509.474 939.844 509.015 939.328 508.5C938.87 507.984 938.411 507.468 937.895 506.952C936.978 505.92 936.004 504.831 935.029 503.799C934.112 502.71 933.195 501.621 932.278 500.532C931.303 499.443 930.444 498.296 929.584 497.15C928.724 496.003 927.807 494.857 927.004 493.653C923.565 488.953 920.47 483.966 917.89 478.692C915.311 473.419 913.247 467.916 912.043 462.241C911.413 459.432 911.069 456.566 910.897 453.7L910.84 453.184V452.668V451.579L910.782 449.458L910.897 447.337C910.954 446.65 910.954 445.904 911.069 445.217C911.699 439.542 913.419 433.982 915.999 428.708C918.521 423.434 922.075 418.447 926.144 413.919C930.214 409.333 934.915 405.149 939.959 401.366C945.003 397.582 950.391 394.143 955.952 391.048C961.512 387.952 967.244 385.144 973.034 382.621C975.9 381.303 978.88 380.214 981.804 379.01C983.294 378.437 984.727 377.921 986.217 377.348C987.708 376.775 989.141 376.259 990.631 375.743C1002.38 371.673 1014.02 368.406 1025.25 365.712C1026.63 365.368 1028.06 365.024 1029.44 364.737C1030.81 364.451 1032.19 364.107 1033.57 363.82C1034.25 363.648 1034.94 363.533 1035.63 363.361C1036.32 363.247 1037 363.075 1037.69 362.96C1039.07 362.674 1040.39 362.387 1041.7 362.1C1044.34 361.527 1046.98 361.069 1049.56 360.553C1050.88 360.323 1052.14 360.094 1053.4 359.865C1054.66 359.635 1055.92 359.406 1057.18 359.234C1059.7 358.833 1062.11 358.317 1064.52 357.973C1066.93 357.572 1069.28 357.228 1071.57 356.884C1073.86 356.54 1076.1 356.254 1078.28 355.91C1080.45 355.623 1082.57 355.279 1084.64 355.05C1088.77 354.534 1092.61 354.018 1096.16 353.617C1099.71 353.215 1102.98 352.814 1105.96 352.47C1108.94 352.126 1111.58 351.84 1113.87 351.61C1116.17 351.381 1118.17 351.152 1119.78 351.037C1122.99 350.693 1124.65 350.521 1124.65 350.521C1124.65 350.521 1123.04 350.349 1119.89 350.005ZM1040.1 350.808C1034.54 351.381 1028.81 352.184 1022.9 353.101C1011.15 354.992 998.771 357.572 986.16 361.298C984.555 361.756 983.007 362.215 981.402 362.731C979.797 363.247 978.25 363.705 976.645 364.279C973.492 365.425 970.282 366.514 967.129 367.775C966.327 368.062 965.524 368.406 964.722 368.692L963.518 369.151L962.314 369.667C960.709 370.355 959.162 371.042 957.557 371.73C955.952 372.418 954.404 373.221 952.856 373.966C951.251 374.711 949.704 375.514 948.156 376.373C946.608 377.176 945.003 377.978 943.513 378.896L941.22 380.214C940.475 380.673 939.672 381.074 938.927 381.59C937.437 382.564 935.889 383.539 934.399 384.456C932.908 385.488 931.475 386.519 929.985 387.608C924.138 391.908 918.578 396.78 913.534 402.34C908.547 407.958 904.133 414.206 900.808 421.199C897.484 428.135 895.363 435.758 894.675 443.44C894.56 444.414 894.56 445.331 894.503 446.306C894.446 447.28 894.446 448.197 894.388 449.172C894.446 450.146 894.446 451.063 894.503 452.038L894.56 453.471V454.159L894.618 454.847C895.019 458.63 895.592 462.298 896.509 465.852C898.344 473.018 901.095 479.61 904.477 485.686C906.139 488.724 907.973 491.59 909.865 494.341C910.84 495.717 911.814 497.035 912.788 498.411C913.82 499.729 914.852 500.99 915.884 502.252C916.858 503.513 918.005 504.716 919.037 505.92C920.068 507.124 921.157 508.328 922.247 509.417C923.336 510.563 924.425 511.652 925.514 512.799C926.66 513.888 927.749 514.92 928.839 515.951C937.723 524.32 946.895 531.027 955.608 536.759C956.754 537.504 957.901 538.25 958.99 538.937C957.901 538.536 956.754 538.135 955.665 537.676C945.978 534.18 935.316 530.855 923.794 527.932C920.928 527.186 918.005 526.556 915.024 525.868C912.043 525.237 909.005 524.607 905.967 523.976C899.834 522.83 893.529 521.798 887.051 520.996C885.446 520.824 883.784 520.594 882.179 520.422C880.516 520.25 878.911 520.136 877.249 519.964C873.924 519.62 870.6 519.505 867.275 519.276C865.613 519.161 863.893 519.161 862.231 519.104C860.511 519.047 858.849 518.989 857.129 518.989C855.41 518.989 853.69 518.989 851.97 518.989C850.251 518.989 848.531 519.104 846.811 519.104L844.232 519.161C843.372 519.219 842.512 519.276 841.652 519.333C839.933 519.448 838.213 519.563 836.436 519.677C832.94 519.964 829.5 520.25 826.004 520.766C822.507 521.168 819.068 521.798 815.571 522.371L810.355 523.403C809.495 523.575 808.635 523.747 807.775 523.976L805.196 524.607C798.317 526.327 791.496 528.333 784.789 530.912C783.127 531.543 781.465 532.231 779.802 532.919L778.541 533.434L777.338 534.008L774.93 535.154C774.128 535.555 773.325 535.899 772.523 536.3L770.172 537.504L767.822 538.708C767.02 539.109 766.275 539.568 765.472 540.026C763.924 540.944 762.377 541.746 760.886 542.721L758.651 544.154L757.504 544.841C757.16 545.071 756.759 545.357 756.415 545.587C754.982 546.618 753.492 547.593 752.116 548.682C750.74 549.771 749.365 550.86 747.989 551.949C742.601 556.42 737.671 561.407 733.372 566.796C724.774 577.515 718.87 589.782 715.774 601.876C714.284 607.952 713.309 613.914 712.908 619.703C712.851 621.136 712.794 622.569 712.736 624.003L712.679 625.092V626.123C712.679 626.811 712.679 627.499 712.679 628.244C712.679 631.053 712.908 633.747 713.08 636.384C714.055 646.988 716.348 656.332 718.927 664.414C719.443 666.019 719.959 667.51 720.532 669C720.188 668.484 719.901 667.911 719.557 667.395C719.042 666.535 718.411 665.675 717.838 664.758C713.252 657.65 707.52 649.969 700.527 642.173C693.534 634.378 685.279 626.467 675.649 619.073C666.019 611.736 655.185 604.8 643.205 599.068C642.46 598.724 641.715 598.323 640.97 597.979C640.224 597.635 639.422 597.291 638.677 596.947C637.129 596.259 635.639 595.571 634.034 594.94C632.486 594.31 630.881 593.679 629.333 593.049C628.531 592.705 627.728 592.418 626.926 592.132C626.123 591.845 625.321 591.559 624.518 591.272C623.716 590.985 622.913 590.699 622.111 590.412C621.308 590.125 620.449 589.896 619.646 589.61C617.984 589.094 616.379 588.52 614.716 588.062C613.054 587.603 611.392 587.145 609.672 586.686C608.01 586.228 606.29 585.884 604.57 585.482C603.711 585.31 602.851 585.081 601.991 584.909L599.411 584.393C597.692 584.049 595.972 583.648 594.253 583.419C592.533 583.132 590.756 582.846 589.036 582.559C587.259 582.33 585.54 582.1 583.763 581.929C576.712 581.183 569.604 580.725 562.496 580.667C555.389 580.725 548.281 581.126 541.23 581.929C539.453 582.158 537.734 582.387 535.957 582.559C534.18 582.846 532.46 583.132 530.74 583.419C529.021 583.706 527.301 584.049 525.581 584.393L523.002 584.909C522.142 585.081 521.282 585.31 520.422 585.482C518.703 585.884 517.04 586.285 515.321 586.686C513.659 587.145 511.939 587.603 510.277 588.062C508.614 588.52 506.952 589.094 505.347 589.61C504.544 589.896 503.685 590.125 502.882 590.412C502.08 590.699 501.277 590.985 500.475 591.272C499.672 591.559 498.87 591.845 498.067 592.132C497.265 592.418 496.462 592.705 495.66 593.049C494.055 593.679 492.507 594.31 490.959 594.94C489.411 595.571 487.864 596.259 486.316 596.947C485.571 597.291 484.768 597.635 484.023 597.979C483.278 598.323 482.533 598.724 481.788 599.068C469.807 604.8 458.916 611.736 449.344 619.073C444.586 622.856 440.058 626.582 435.93 630.48C434.899 631.454 433.867 632.429 432.892 633.403C431.918 634.378 430.944 635.352 429.969 636.327C428.02 638.218 426.243 640.225 424.466 642.173C424.008 642.632 423.606 643.148 423.148 643.607C422.747 644.122 422.288 644.581 421.887 645.097C421.084 646.071 420.224 647.046 419.422 648.02C418.619 648.937 417.874 649.969 417.072 650.886C416.327 651.861 415.581 652.778 414.836 653.752C411.97 657.593 409.333 661.204 407.098 664.758C406.525 665.618 405.951 666.478 405.378 667.395C405.034 667.911 404.748 668.427 404.404 668.943C404.919 667.452 405.435 665.962 405.951 664.414C408.531 656.389 410.824 646.988 411.798 636.384C411.97 633.747 412.199 631.053 412.199 628.244C412.199 627.556 412.199 626.869 412.199 626.123V625.092L412.142 624.003C412.085 622.569 412.027 621.136 411.97 619.703C411.569 613.914 410.652 607.952 409.104 601.876C406.009 589.782 400.104 577.515 391.506 566.796C387.207 561.407 382.277 556.42 376.889 551.949C375.514 550.86 374.138 549.771 372.762 548.682C371.386 547.593 369.896 546.618 368.463 545.587C368.119 545.357 367.718 545.071 367.374 544.841L366.227 544.154L363.992 542.721C362.502 541.746 360.954 540.886 359.406 540.026C358.604 539.568 357.859 539.109 357.056 538.708L354.706 537.504L352.356 536.3C351.553 535.899 350.751 535.555 349.948 535.154L347.541 534.008L346.337 533.434L345.076 532.919C343.413 532.231 341.751 531.543 340.089 530.912C333.44 528.39 326.561 526.327 319.682 524.607L317.103 523.976C316.243 523.747 315.383 523.575 314.523 523.403L309.307 522.371C305.811 521.798 302.371 521.168 298.875 520.766C295.378 520.25 291.939 519.964 288.442 519.677C286.722 519.563 284.945 519.448 283.226 519.333C282.366 519.276 281.506 519.219 280.646 519.161L278.067 519.104C276.347 519.047 274.628 518.989 272.908 518.989C271.188 518.989 269.469 518.989 267.749 518.989C266.029 518.989 264.367 519.047 262.647 519.104C260.928 519.161 259.265 519.219 257.603 519.276C254.221 519.505 250.896 519.62 247.629 519.964C245.967 520.136 244.362 520.25 242.699 520.422C241.094 520.594 239.432 520.824 237.827 520.996C231.35 521.798 225.044 522.773 218.911 523.976C215.873 524.607 212.835 525.237 209.854 525.868C206.874 526.556 203.95 527.186 201.084 527.932C189.562 530.855 178.901 534.18 169.213 537.676C168.067 538.078 166.978 538.479 165.889 538.937C167.035 538.25 168.124 537.504 169.271 536.759C177.983 531.027 187.155 524.32 196.04 515.951C197.129 514.92 198.275 513.83 199.364 512.799C200.454 511.71 201.543 510.563 202.632 509.417C203.721 508.328 204.81 507.124 205.842 505.92C206.874 504.716 208.02 503.57 208.994 502.252C210.026 500.99 211.058 499.729 212.09 498.411C213.064 497.093 214.039 495.717 215.013 494.341C216.905 491.532 218.739 488.724 220.401 485.686C223.783 479.667 226.592 473.018 228.369 465.852C229.286 462.298 229.917 458.572 230.261 454.847L230.318 454.159V453.471L230.375 452.038C230.433 451.063 230.433 450.146 230.49 449.172C230.433 448.197 230.433 447.28 230.375 446.306C230.318 445.331 230.318 444.357 230.203 443.44C229.458 435.758 227.395 428.135 224.07 421.199C220.803 414.206 216.332 407.958 211.345 402.34C206.3 396.78 200.74 391.908 194.893 387.608C193.403 386.577 191.913 385.488 190.48 384.456C188.989 383.481 187.442 382.507 185.951 381.59C185.206 381.074 184.403 380.673 183.658 380.214L181.365 378.896C179.818 377.978 178.27 377.176 176.722 376.373C175.175 375.571 173.627 374.711 172.022 373.966C170.417 373.221 168.869 372.418 167.322 371.73C165.717 371.042 164.169 370.355 162.564 369.667L161.36 369.151L160.156 368.692C159.354 368.406 158.551 368.062 157.749 367.775C154.596 366.457 151.386 365.425 148.234 364.279C146.629 363.705 145.081 363.247 143.476 362.731C141.871 362.215 140.323 361.699 138.718 361.298C126.107 357.572 113.726 354.992 101.975 353.101C96.0709 352.184 90.3388 351.381 84.7786 350.808C83.9761 350.693 83.1736 350.636 82.4284 350.521C83.2309 350.464 84.0334 350.349 84.7786 350.235C90.3388 349.662 96.0709 348.859 101.975 347.942C113.726 346.05 126.107 343.471 138.718 339.745C140.323 339.286 141.871 338.828 143.476 338.312C145.081 337.796 146.629 337.337 148.234 336.764C151.386 335.618 154.596 334.529 157.749 333.268C158.551 332.981 159.354 332.637 160.156 332.35L161.36 331.892L162.564 331.376C164.169 330.688 165.717 330 167.322 329.312C168.927 328.567 170.474 327.822 172.022 327.077C173.627 326.332 175.175 325.529 176.722 324.669C178.27 323.867 179.875 323.064 181.365 322.147L183.658 320.829C184.403 320.37 185.206 319.969 185.951 319.453C187.442 318.479 188.989 317.561 190.48 316.53C191.97 315.498 193.403 314.409 194.893 313.377C200.74 309.078 206.3 304.206 211.345 298.588C216.332 292.971 220.745 286.722 224.07 279.729C227.395 272.793 229.458 265.17 230.203 257.488C231.006 249.807 230.146 242.126 228.312 235.018C226.477 227.853 223.669 221.261 220.344 215.185C218.682 212.147 216.847 209.281 214.956 206.53C213.981 205.154 213.007 203.836 212.032 202.46C211.001 201.141 209.969 199.88 208.937 198.619C207.963 197.358 206.816 196.154 205.784 194.951C204.753 193.747 203.664 192.543 202.574 191.454C201.485 190.308 200.396 189.218 199.307 188.072C198.161 186.983 197.072 185.951 195.982 184.919C187.098 176.55 177.926 169.844 169.213 164.112C168.01 163.309 166.806 162.564 165.659 161.819C166.806 162.277 168.01 162.679 169.213 163.137C178.901 166.634 189.562 169.958 201.084 172.882C212.606 175.805 224.93 178.213 237.827 179.818C239.432 179.99 241.094 180.219 242.699 180.391C244.362 180.563 245.967 180.735 247.629 180.85C250.954 181.193 254.278 181.308 257.603 181.537C259.265 181.652 260.985 181.652 262.647 181.709C264.367 181.767 266.029 181.824 267.749 181.824C269.469 181.824 271.188 181.824 272.908 181.824C274.628 181.824 276.347 181.709 278.067 181.709L280.646 181.652C281.506 181.595 282.366 181.537 283.226 181.48C284.945 181.365 286.665 181.251 288.442 181.136C290.162 180.964 291.939 180.85 293.658 180.678C295.378 180.563 297.155 180.276 298.875 180.047C302.371 179.646 305.811 179.015 309.307 178.442L314.523 177.41C315.383 177.238 316.243 177.066 317.103 176.837L319.682 176.206C326.561 174.487 333.44 172.481 340.089 169.901C346.738 167.379 353.215 164.284 359.406 160.787C360.954 159.87 362.502 159.067 363.992 158.093L366.227 156.66L367.374 155.972C367.718 155.743 368.119 155.456 368.463 155.227C369.896 154.195 371.386 153.221 372.762 152.131C374.138 151.042 375.514 149.953 376.889 148.864C382.277 144.336 387.264 139.406 391.506 134.018C395.805 128.63 399.474 122.897 402.397 116.993C403.143 115.503 403.888 114.07 404.461 112.522C404.748 111.777 405.091 111.032 405.378 110.287L405.837 109.14C406.009 108.739 406.123 108.395 406.238 107.994C406.754 106.446 407.327 104.956 407.786 103.465C408.244 101.918 408.645 100.427 409.047 98.937C410.537 92.8609 411.454 86.8995 411.913 81.11C411.97 79.677 412.027 78.2439 412.085 76.8109L412.142 75.7218V74.69C412.142 74.0022 412.142 73.3143 412.142 72.5691C412.142 69.7604 411.913 67.0662 411.741 64.4295C410.766 53.825 408.473 44.4815 405.894 36.3992C405.378 34.8515 404.862 33.3038 404.346 31.8708C404.633 32.3867 404.977 32.9026 405.263 33.4185C405.779 34.2783 406.41 35.1381 406.983 36.0553C411.569 43.1631 417.301 50.8443 424.294 58.64C431.287 66.4357 439.542 74.3461 449.172 81.7406C458.802 89.0777 469.636 96.0136 481.616 101.746C482.361 102.09 483.106 102.491 483.851 102.835C484.596 103.179 485.399 103.523 486.144 103.867C487.692 104.555 489.182 105.242 490.787 105.873C492.335 106.503 493.94 107.134 495.488 107.765C496.29 108.108 497.093 108.395 497.895 108.682C498.698 108.968 499.5 109.255 500.303 109.542C501.105 109.828 501.908 110.115 502.71 110.401C503.513 110.688 504.372 110.917 505.175 111.204C506.837 111.72 508.442 112.293 510.105 112.752C511.767 113.21 513.429 113.669 515.149 114.127C516.811 114.586 518.531 114.93 520.25 115.331C521.11 115.503 521.97 115.732 522.83 115.904L525.409 116.42C527.129 116.764 528.849 117.165 530.568 117.395C532.288 117.681 534.065 117.968 535.785 118.254C537.562 118.484 539.281 118.713 541.058 118.885C548.109 119.63 555.217 120.089 562.325 120.146C569.432 120.089 576.54 119.687 583.591 118.885C585.368 118.656 587.087 118.426 588.864 118.254C590.641 117.968 592.361 117.681 594.081 117.395C595.8 117.108 597.52 116.764 599.24 116.42L601.819 115.904C602.679 115.732 603.539 115.503 604.398 115.331C606.118 114.93 607.78 114.528 609.5 114.127C611.162 113.669 612.882 113.21 614.544 112.752C616.207 112.293 617.869 111.72 619.474 111.204C620.277 110.917 621.136 110.688 621.939 110.401C622.741 110.115 623.544 109.828 624.346 109.542C625.149 109.255 625.951 108.968 626.754 108.682C627.556 108.395 628.359 108.108 629.161 107.765C630.766 107.134 632.314 106.503 633.862 105.873C635.409 105.242 636.957 104.555 638.505 103.867C639.25 103.523 640.052 103.179 640.798 102.835C641.543 102.491 642.288 102.09 643.033 101.746C655.013 96.0136 665.905 89.0777 675.477 81.7406C680.235 77.9573 684.763 74.2314 688.89 70.3336C689.922 69.3591 690.954 68.3846 691.929 67.4102C692.903 66.4357 693.877 65.4612 694.852 64.4868C696.801 62.5951 698.578 60.5889 700.355 58.64C700.813 58.1814 701.215 57.6655 701.673 57.2069C702.074 56.6911 702.533 56.2325 702.934 55.7166C703.737 54.7421 704.597 53.7676 705.399 52.7932C706.202 51.876 706.947 50.8442 707.749 49.9271C708.494 48.9526 709.24 48.0355 709.985 47.061C712.851 43.2205 715.488 39.6092 717.723 36.0553C718.296 35.1955 718.87 34.3356 719.443 33.4185C719.729 32.9026 720.073 32.444 720.36 31.9281C719.844 33.3612 719.328 34.8515 718.812 36.3992C716.233 44.4242 713.94 53.825 712.966 64.4295C712.794 67.0662 712.564 69.7604 712.564 72.5691C712.564 73.257 712.564 73.9448 712.564 74.69V75.7218L712.622 76.8109C712.679 78.2439 712.736 79.677 712.794 81.11C713.195 86.8995 714.112 92.8609 715.66 98.937C716.061 100.427 716.519 101.975 716.921 103.465C717.437 104.956 717.953 106.446 718.468 107.994C718.583 108.395 718.755 108.739 718.87 109.14L719.328 110.287C719.615 111.032 719.959 111.777 720.245 112.522C720.819 114.07 721.621 115.503 722.309 116.993C725.232 122.955 728.901 128.63 733.2 134.018C737.442 139.406 742.429 144.393 747.817 148.864C749.193 149.953 750.568 151.042 751.944 152.131C753.32 153.221 754.81 154.195 756.243 155.227C756.587 155.456 756.989 155.743 757.332 155.972L758.479 156.66L760.714 158.093C762.205 159.067 763.752 159.927 765.3 160.787C771.491 164.284 777.968 167.379 784.617 169.901C791.267 172.423 798.145 174.487 805.024 176.206L807.603 176.837C808.463 177.066 809.323 177.238 810.183 177.41L815.399 178.442C818.896 179.015 822.335 179.646 825.832 180.047C827.551 180.276 829.328 180.506 831.048 180.678C832.768 180.85 834.545 180.964 836.264 181.136C837.984 181.251 839.761 181.365 841.481 181.48C842.34 181.537 843.2 181.595 844.06 181.652L846.639 181.709C848.359 181.767 850.079 181.824 851.798 181.824C853.518 181.824 855.238 181.824 856.957 181.824C858.677 181.824 860.339 181.767 862.059 181.709C863.779 181.652 865.441 181.595 867.103 181.537C870.485 181.308 873.81 181.193 877.077 180.85C878.74 180.735 880.344 180.563 882.007 180.391C883.612 180.219 885.274 179.99 886.879 179.818C899.834 178.27 912.158 175.805 923.622 172.882C935.144 169.958 945.806 166.634 955.493 163.137C956.697 162.679 957.901 162.277 959.047 161.819C957.843 162.564 956.697 163.309 955.493 164.112C946.78 169.844 937.609 176.55 928.724 184.919C927.635 185.951 926.488 187.04 925.399 188.072C924.31 189.161 923.221 190.308 922.132 191.454C921.043 192.543 919.954 193.747 918.922 194.951C917.89 196.154 916.744 197.301 915.769 198.619C914.737 199.88 913.706 201.141 912.674 202.46C911.699 203.778 910.725 205.154 909.75 206.53C907.859 209.338 906.025 212.147 904.362 215.185C900.98 221.204 898.172 227.853 896.395 235.018C894.56 242.126 893.7 249.807 894.503 257.488C895.248 265.17 897.312 272.793 900.636 279.729C903.904 286.722 908.375 292.971 913.362 298.588C918.406 304.148 923.966 309.021 929.813 313.377C931.303 314.409 932.794 315.498 934.227 316.53C935.717 317.504 937.265 318.479 938.755 319.453C939.5 319.969 940.303 320.37 941.048 320.829L943.341 322.147C944.889 323.064 946.436 323.867 947.984 324.669C949.532 325.472 951.079 326.332 952.684 327.077C954.232 327.822 955.837 328.625 957.385 329.312C958.99 330 960.537 330.688 962.142 331.376L963.346 331.892L964.55 332.35C965.352 332.637 966.155 332.981 966.957 333.268C970.11 334.586 973.32 335.618 976.473 336.764C978.078 337.337 979.625 337.796 981.23 338.312C982.835 338.828 984.383 339.344 985.988 339.745C998.599 343.471 1010.98 346.05 1022.73 347.942C1028.64 348.859 1034.37 349.662 1039.93 350.235C1040.73 350.349 1041.53 350.407 1042.28 350.521C1041.7 350.636 1040.9 350.751 1040.1 350.808Z" fill="black"/>
</svg>
