<svg width="583" height="299" viewBox="0 0 583 299" fill="none" xmlns="http://www.w3.org/2000/svg">
<g filter="url(#filter0_d_430_29)">
<path d="M562.5 180.5L505 223L570.5 277.5L440.5 233C332.167 237.833 113.9 247.5 107.5 247.5C101.1 247.5 98.1667 245.833 97.5 245L12 151V144.5L16 139.5L134.5 92C234 98.3333 436.5 111.2 450.5 112C464.5 112.8 476 116.333 480 118L562.5 173V180.5Z" fill="#D3165E"/>
</g>
<path d="M64.5909 50.7865L97.5877 75.1755L60 106.451L134.602 80.9141C196.77 83.6877 322.024 89.235 325.697 89.235C329.369 89.235 331.053 88.2786 331.435 87.8004L380.5 33.8577V30.1276L378.205 27.2583L310.202 0C253.103 3.63444 136.897 11.0181 128.863 11.4772C120.829 11.9363 114.23 13.9639 111.934 14.9203L64.5909 46.4825V50.7865Z" fill="#D9D9D9"/>
<path d="M139.152 193.88C144.08 193.88 147.536 193.112 149.52 191.576C151.504 189.976 152.496 187.96 152.496 185.528C152.496 183.736 152.048 182.2 151.152 180.92C150.32 179.64 149.168 178.52 147.696 177.56C146.288 176.6 144.624 175.736 142.704 174.968C140.848 174.2 138.928 173.464 136.944 172.76C135.024 172.056 133.104 171.288 131.184 170.456C129.328 169.56 127.664 168.504 126.192 167.288C124.72 166.008 123.504 164.504 122.544 162.776C121.648 160.984 121.2 158.808 121.2 156.248C121.2 151.704 122.544 147.992 125.232 145.112C127.984 142.168 131.952 140.312 137.136 139.544V128.504H145.104V139.256C147.92 139.384 150.544 139.736 152.976 140.312C155.408 140.888 157.328 141.432 158.736 141.944L156.912 149.432C155.376 148.856 153.456 148.28 151.152 147.704C148.848 147.064 145.968 146.744 142.512 146.744C138.672 146.744 135.696 147.48 133.584 148.952C131.536 150.424 130.512 152.504 130.512 155.192C130.512 156.664 130.8 157.912 131.376 158.936C132.016 159.96 132.912 160.888 134.064 161.72C135.216 162.488 136.56 163.192 138.096 163.832C139.696 164.472 141.456 165.144 143.376 165.848C145.872 166.808 148.24 167.8 150.48 168.824C152.72 169.848 154.672 171.096 156.336 172.568C158.064 173.976 159.44 175.672 160.464 177.656C161.488 179.64 162 182.04 162 184.856C162 189.4 160.624 193.08 157.872 195.896C155.12 198.648 150.864 200.376 145.104 201.08V213.464H137.136V201.368C132.656 201.24 129.008 200.76 126.192 199.928C123.376 199.032 121.264 198.2 119.856 197.432L122.256 190.232C124.176 191.128 126.48 191.96 129.168 192.728C131.856 193.496 135.184 193.88 139.152 193.88ZM225.692 136.472C223.708 138.648 221.468 141.08 218.972 143.768C216.476 146.392 213.852 149.112 211.1 151.928C208.412 154.68 205.724 157.4 203.036 160.088C200.348 162.776 197.82 165.272 195.452 167.576C198.204 169.496 201.116 171.864 204.188 174.68C207.26 177.496 210.268 180.504 213.212 183.704C216.156 186.904 218.908 190.168 221.468 193.496C224.092 196.824 226.268 199.992 227.996 203H217.052C215.132 199.992 212.924 196.984 210.428 193.976C207.932 190.904 205.276 187.992 202.46 185.24C199.708 182.424 196.892 179.832 194.012 177.464C191.196 175.096 188.444 173.08 185.756 171.416V203H176.444V136.472H185.756V165.848C187.996 163.736 190.46 161.368 193.148 158.744C195.836 156.056 198.492 153.368 201.116 150.68C203.74 147.992 206.204 145.432 208.508 143C210.876 140.504 212.86 138.328 214.46 136.472H225.692ZM284.548 203C283.46 200.12 282.436 197.304 281.476 194.552C280.516 191.736 279.524 188.888 278.5 186.008H248.356L242.308 203H232.612C235.172 195.96 237.572 189.464 239.812 183.512C242.052 177.496 244.228 171.8 246.34 166.424C248.516 161.048 250.66 155.928 252.772 151.064C254.884 146.136 257.092 141.272 259.396 136.472H267.94C270.244 141.272 272.452 146.136 274.564 151.064C276.676 155.928 278.788 161.048 280.9 166.424C283.076 171.8 285.284 177.496 287.524 183.512C289.764 189.464 292.164 195.96 294.724 203H284.548ZM275.812 178.328C273.764 172.76 271.716 167.384 269.668 162.2C267.684 156.952 265.604 151.928 263.428 147.128C261.188 151.928 259.044 156.952 256.996 162.2C255.012 167.384 253.028 172.76 251.044 178.328H275.812ZM303.756 136.472H313.068V203H303.756V136.472ZM373.985 136.472V144.536H353.057V203H343.745V144.536H322.817V136.472H373.985ZM378.506 169.688C378.506 163.992 379.338 158.968 381.002 154.616C382.73 150.264 385.034 146.648 387.914 143.768C390.858 140.824 394.25 138.616 398.09 137.144C401.994 135.672 406.122 134.936 410.474 134.936C414.762 134.936 418.794 135.672 422.57 137.144C426.41 138.616 429.77 140.824 432.65 143.768C435.53 146.648 437.802 150.264 439.466 154.616C441.194 158.968 442.058 163.992 442.058 169.688C442.058 175.384 441.194 180.408 439.466 184.76C437.802 189.112 435.53 192.76 432.65 195.704C429.77 198.584 426.41 200.76 422.57 202.232C418.794 203.704 414.762 204.44 410.474 204.44C406.122 204.44 401.994 203.704 398.09 202.232C394.25 200.76 390.858 198.584 387.914 195.704C385.034 192.76 382.73 189.112 381.002 184.76C379.338 180.408 378.506 175.384 378.506 169.688ZM388.298 169.688C388.298 173.72 388.81 177.4 389.834 180.728C390.858 183.992 392.298 186.776 394.154 189.08C396.074 191.384 398.378 193.176 401.066 194.456C403.818 195.672 406.89 196.28 410.282 196.28C413.674 196.28 416.714 195.672 419.402 194.456C422.09 193.176 424.362 191.384 426.218 189.08C428.138 186.776 429.61 183.992 430.634 180.728C431.658 177.4 432.17 173.72 432.17 169.688C432.17 165.656 431.658 162.008 430.634 158.744C429.61 155.416 428.138 152.6 426.218 150.296C424.362 147.992 422.09 146.232 419.402 145.016C416.714 143.736 413.674 143.096 410.282 143.096C406.89 143.096 403.818 143.736 401.066 145.016C398.378 146.232 396.074 147.992 394.154 150.296C392.298 152.6 390.858 155.416 389.834 158.744C388.81 162.008 388.298 165.656 388.298 169.688Z" fill="white"/>
<path d="M144.056 58.392C143.736 57.624 143.304 56.648 142.76 55.464C142.248 54.28 141.688 53 141.08 51.624C140.472 50.248 139.816 48.84 139.112 47.4C138.44 45.928 137.8 44.552 137.192 43.272C136.584 41.96 136.008 40.792 135.464 39.768C134.952 38.744 134.536 37.96 134.216 37.416C133.864 41.192 133.576 45.288 133.352 49.704C133.128 54.088 132.936 58.52 132.776 63H128.216C128.344 60.12 128.488 57.224 128.648 54.312C128.808 51.368 128.984 48.488 129.176 45.672C129.4 42.824 129.624 40.056 129.848 37.368C130.104 34.68 130.376 32.136 130.664 29.736H134.744C135.608 31.144 136.536 32.808 137.528 34.728C138.52 36.648 139.512 38.664 140.504 40.776C141.496 42.856 142.456 44.952 143.384 47.064C144.312 49.144 145.16 51.048 145.928 52.776C146.696 51.048 147.544 49.144 148.472 47.064C149.4 44.952 150.36 42.856 151.352 40.776C152.344 38.664 153.336 36.648 154.328 34.728C155.32 32.808 156.248 31.144 157.112 29.736H161.192C162.28 40.456 163.096 51.544 163.64 63H159.08C158.92 58.52 158.728 54.088 158.504 49.704C158.28 45.288 157.992 41.192 157.64 37.416C157.32 37.96 156.888 38.744 156.344 39.768C155.832 40.792 155.272 41.96 154.664 43.272C154.056 44.552 153.4 45.928 152.696 47.4C152.024 48.84 151.384 50.248 150.776 51.624C150.168 53 149.592 54.28 149.048 55.464C148.536 56.648 148.12 57.624 147.8 58.392H144.056ZM175.117 63H170.653V38.04H175.117V63ZM172.861 33.528C172.061 33.528 171.373 33.272 170.797 32.76C170.253 32.216 169.98 31.496 169.98 30.6C169.98 29.704 170.253 29 170.797 28.488C171.373 27.944 172.061 27.672 172.861 27.672C173.661 27.672 174.333 27.944 174.877 28.488C175.453 29 175.741 29.704 175.741 30.6C175.741 31.496 175.453 32.216 174.877 32.76C174.333 33.272 173.661 33.528 172.861 33.528ZM182.793 38.76C183.817 38.504 185.177 38.232 186.873 37.944C188.569 37.656 190.521 37.512 192.729 37.512C194.713 37.512 196.361 37.8 197.673 38.376C198.985 38.92 200.025 39.704 200.793 40.728C201.593 41.72 202.153 42.92 202.473 44.328C202.793 45.736 202.953 47.288 202.953 48.984V63H198.489V49.944C198.489 48.408 198.377 47.096 198.153 46.008C197.961 44.92 197.625 44.04 197.145 43.368C196.665 42.696 196.025 42.216 195.225 41.928C194.425 41.608 193.433 41.448 192.249 41.448C191.769 41.448 191.273 41.464 190.761 41.496C190.249 41.528 189.753 41.576 189.273 41.64C188.825 41.672 188.409 41.72 188.025 41.784C187.673 41.848 187.417 41.896 187.257 41.928V63H182.793V38.76ZM214.532 38.04H223.988V41.784H214.532V53.304C214.532 54.552 214.628 55.592 214.82 56.424C215.012 57.224 215.3 57.864 215.684 58.344C216.068 58.792 216.548 59.112 217.124 59.304C217.7 59.496 218.372 59.592 219.14 59.592C220.484 59.592 221.556 59.448 222.356 59.16C223.188 58.84 223.764 58.616 224.084 58.488L224.948 62.184C224.5 62.408 223.716 62.68 222.596 63C221.476 63.352 220.196 63.528 218.756 63.528C217.06 63.528 215.652 63.32 214.532 62.904C213.444 62.456 212.564 61.8 211.892 60.936C211.22 60.072 210.74 59.016 210.452 57.768C210.196 56.488 210.068 55.016 210.068 53.352V31.08L214.532 30.312V38.04ZM237.85 67.656C238.202 67.816 238.65 67.96 239.194 68.088C239.77 68.248 240.33 68.328 240.874 68.328C242.634 68.328 244.01 67.928 245.002 67.128C245.994 66.36 246.89 65.096 247.69 63.336C245.674 59.496 243.786 55.432 242.026 51.144C240.298 46.824 238.858 42.456 237.706 38.04H242.506C242.858 39.48 243.274 41.032 243.754 42.696C244.266 44.36 244.826 46.072 245.434 47.832C246.042 49.592 246.698 51.352 247.402 53.112C248.106 54.872 248.842 56.568 249.609 58.2C250.826 54.84 251.882 51.512 252.778 48.216C253.674 44.92 254.522 41.528 255.322 38.04H259.93C258.778 42.744 257.498 47.272 256.09 51.624C254.682 55.944 253.162 59.992 251.53 63.768C250.89 65.208 250.218 66.44 249.514 67.464C248.842 68.52 248.09 69.384 247.258 70.056C246.426 70.728 245.482 71.224 244.426 71.544C243.402 71.864 242.234 72.024 240.922 72.024C240.57 72.024 240.202 71.992 239.818 71.928C239.434 71.896 239.05 71.832 238.666 71.736C238.314 71.672 237.978 71.592 237.658 71.496C237.37 71.4 237.162 71.32 237.034 71.256L237.85 67.656ZM286.669 50.52C286.669 52.504 286.381 54.296 285.805 55.896C285.229 57.496 284.413 58.872 283.357 60.024C282.333 61.176 281.101 62.072 279.661 62.712C278.221 63.32 276.653 63.624 274.957 63.624C273.261 63.624 271.693 63.32 270.253 62.712C268.813 62.072 267.565 61.176 266.509 60.024C265.485 58.872 264.685 57.496 264.109 55.896C263.533 54.296 263.245 52.504 263.245 50.52C263.245 48.568 263.533 46.792 264.109 45.192C264.685 43.56 265.485 42.168 266.509 41.016C267.565 39.864 268.813 38.984 270.253 38.376C271.693 37.736 273.261 37.416 274.957 37.416C276.653 37.416 278.221 37.736 279.661 38.376C281.101 38.984 282.333 39.864 283.357 41.016C284.413 42.168 285.229 43.56 285.805 45.192C286.381 46.792 286.669 48.568 286.669 50.52ZM282.013 50.52C282.013 47.704 281.373 45.48 280.093 43.848C278.845 42.184 277.133 41.352 274.957 41.352C272.781 41.352 271.053 42.184 269.773 43.848C268.525 45.48 267.901 47.704 267.901 50.52C267.901 53.336 268.525 55.576 269.773 57.24C271.053 58.872 272.781 59.688 274.957 59.688C277.133 59.688 278.845 58.872 280.093 57.24C281.373 55.576 282.013 53.336 282.013 50.52ZM312.821 62.28C311.797 62.536 310.437 62.808 308.741 63.096C307.077 63.384 305.141 63.528 302.933 63.528C301.013 63.528 299.397 63.256 298.085 62.712C296.773 62.136 295.717 61.336 294.917 60.312C294.117 59.288 293.541 58.088 293.189 56.712C292.837 55.304 292.661 53.752 292.661 52.056V38.04H297.125V51.096C297.125 54.136 297.605 56.312 298.565 57.624C299.525 58.936 301.141 59.592 303.413 59.592C303.893 59.592 304.389 59.576 304.901 59.544C305.413 59.512 305.893 59.48 306.341 59.448C306.789 59.384 307.189 59.336 307.541 59.304C307.925 59.24 308.197 59.176 308.357 59.112V38.04H312.821V62.28ZM329.728 37.512C330.112 37.512 330.544 37.544 331.024 37.608C331.536 37.64 332.032 37.704 332.512 37.8C332.992 37.864 333.424 37.944 333.808 38.04C334.224 38.104 334.528 38.168 334.72 38.232L333.952 42.12C333.6 41.992 333.008 41.848 332.176 41.688C331.376 41.496 330.336 41.4 329.056 41.4C328.224 41.4 327.392 41.496 326.56 41.688C325.76 41.848 325.232 41.96 324.976 42.024V63H320.512V39.096C321.568 38.712 322.88 38.36 324.448 38.04C326.016 37.688 327.776 37.512 329.728 37.512Z" fill="black"/>
<defs>
<filter id="filter0_d_430_29" x="0" y="89" width="582.5" height="209.5" filterUnits="userSpaceOnUse" color-interpolation-filters="sRGB">
<feFlood flood-opacity="0" result="BackgroundImageFix"/>
<feColorMatrix in="SourceAlpha" type="matrix" values="0 0 0 0 0 0 0 0 0 0 0 0 0 0 0 0 0 0 127 0" result="hardAlpha"/>
<feOffset dy="9"/>
<feGaussianBlur stdDeviation="6"/>
<feComposite in2="hardAlpha" operator="out"/>
<feColorMatrix type="matrix" values="0 0 0 0 0.827451 0 0 0 0 0.0862745 0 0 0 0 0.368627 0 0 0 0.27 0"/>
<feBlend mode="normal" in2="BackgroundImageFix" result="effect1_dropShadow_430_29"/>
<feBlend mode="normal" in="SourceGraphic" in2="effect1_dropShadow_430_29" result="shape"/>
</filter>
</defs>
</svg>
