<svg width="583" height="316" viewBox="0 0 583 316" fill="none" xmlns="http://www.w3.org/2000/svg">
<g filter="url(#filter0_d_504_33)">
<path d="M562.5 197.5L505 240L570.5 294.5L440.5 250C332.167 254.833 113.9 264.5 107.5 264.5C101.1 264.5 98.1667 262.833 97.5 262L12 168V161.5L16 156.5L134.5 109C234 115.333 436.5 128.2 450.5 129C464.5 129.8 476 133.333 480 135L562.5 190V197.5Z" fill="url(#paint0_linear_504_33)"/>
</g>
<path d="M65.3142 59.0158L103.51 87.2476L60 123.451L146.356 93.8904C218.32 97.1011 363.31 103.522 367.561 103.522C371.813 103.522 373.761 102.415 374.204 101.862L431 39.4195V35.1017L428.343 31.7803L349.626 0.227051C283.53 4.43415 149.013 12.9812 139.714 13.5126C130.414 14.0441 122.774 16.3912 120.117 17.4983L65.3142 54.0337V59.0158Z" fill="#E8E8E8"/>
<path d="M146.544 143.312V142.544C146.544 139.088 144.432 139.76 142.992 139.472H139.536C139.248 139.184 138.768 139.28 138.48 139.28H137.808C137.808 139.28 137.52 139.568 137.52 139.856L137.232 149.456C134.832 149.84 132.432 150.8 130.32 151.376C124.752 153.392 122.064 155.888 118.896 161.072C117.168 163.76 115.92 167.024 115.92 170.288C115.92 182.576 117.36 186.416 129.744 189.872C132.528 190.64 135.696 190.256 138.288 191.504C138.384 191.504 138.384 191.6 138.48 191.6C140.88 192.752 141.648 193.136 143.376 195.056C143.472 195.152 143.76 195.632 143.76 195.728V197.072C143.76 199.568 142.896 202.16 141.264 204.08C140.784 204.656 140.016 205.808 139.056 205.808C133.872 205.808 135.984 192.656 132.912 192.656H130.608C130.416 192.656 123.6 194.48 120.816 195.344C120.432 195.44 118.416 196.208 117.84 196.304C117.36 196.592 116.4 196.976 116.4 197.552C116.4 209.648 124.944 217.328 135.792 218.192L135.696 228.656C135.696 228.752 135.984 228.944 135.984 228.944H136.656C139.44 228.944 144.528 228.272 144.72 228.656C144.72 227.408 144.72 226.64 144.624 225.296L144.816 217.52C144.912 217.52 145.104 217.424 145.2 217.424C146.832 216.944 148.464 216.464 150.096 215.792C157.2 211.376 165.552 205.424 165.552 196.208C165.552 191.504 163.824 186.704 159.312 184.688L152.976 181.904C150.96 181.04 148.752 180.944 146.736 180.464C145.68 180.272 140.016 178.736 138.576 178.352C136.944 177.968 134.352 177.2 134.352 175.184C134.352 171.056 138 165.68 142.224 165.68C145.392 165.68 147.696 167.024 148.56 170C148.656 170.384 148.656 171.728 148.656 172.112C148.656 174.032 147.984 175.76 147.984 177.68C147.984 178.544 149.04 178.352 149.616 178.352H150.672L157.776 177.296L165.456 176.912C166.704 176.432 166.704 174.32 166.704 173.168V172.976C166.704 172.784 166.8 170.384 166.8 169.52C166.8 160.592 165.072 155.12 156.72 151.184C154.992 150.416 152.784 149.264 150.864 149.264H146.352L146.544 143.312ZM172.144 160.208C172.144 161.648 172.144 165.776 172.144 166.16C172.24 180.08 172.528 213.488 172.624 213.968L172.816 217.136C172.912 218.48 175.6 218.192 176.272 218.192C176.752 218.192 177.808 218.192 177.904 218.192C179.92 218.096 189.04 217.904 191.056 217.808C191.92 217.712 196.144 216.848 196.144 215.6C196.144 215.504 196.144 215.504 196.144 215.504C196.144 215.12 195.76 212.528 195.76 212.24C195.184 206.192 194.608 201.008 194.608 195.248C194.608 194.96 194.704 193.52 194.704 193.136C196.144 194.384 197.2 197.072 197.776 198.512C198.16 199.184 199.312 202.16 199.6 202.736C199.792 203.408 200.656 206.48 200.848 207.056C201.232 208.688 202.864 215.984 203.152 217.616C203.344 218.288 204.208 218.192 204.688 218.192C205.744 218.192 206.32 218.096 207.472 218H221.2C221.296 218 222.064 217.904 222.352 217.808C222.736 217.616 224.848 216.848 225.232 216.752C226 216.368 226 214.832 226 214.16C226 214.064 226 213.968 226 213.968C226 212.72 225.904 211.472 225.52 210.32C225.04 208.88 223.312 202.64 222.928 201.488C222.352 199.664 221.2 197.744 220.144 196.208C220.048 196.112 220.048 196.016 219.952 195.92C219.28 194.96 217.456 192.368 217.36 192.272L211.408 186.224C210.64 185.648 206.992 184.4 206.8 184.112C207.568 183.92 210.64 182.672 211.408 182.384C211.6 182.288 212.464 181.808 212.656 181.808C218.416 178.352 222.928 170.864 224.464 164.432C224.656 163.568 226.192 156.272 226.576 154.16C226.576 153.968 226.768 152.912 226.768 152.624C226.768 152.624 226.768 152.336 226.768 152.24C226.768 151.472 226 151.376 225.328 151.28H225.232C224.464 151.184 222.064 150.896 221.872 150.896C220.624 150.8 212.848 150.608 210.64 150.512C210.64 150.512 208.816 150.512 208.144 150.512C207.76 150.512 205.936 150.512 205.552 150.512C205.264 150.608 204.976 150.8 204.688 151.088C205.168 160.112 199.216 169.136 193.84 175.76C193.744 175.856 193.456 176.144 193.36 176.24V175.952L195.184 150.8L172.912 150.512C172.24 150.704 172.144 150.992 172.048 151.76C172.048 152.624 172.144 159.344 172.144 160.208ZM227.576 217.136C227.576 217.52 229.016 218 229.4 218H229.496C232.088 218 244.376 217.616 246.872 217.616C247.736 217.328 248.696 217.232 249.176 216.56C249.176 216.272 249.368 215.12 249.368 214.832C249.752 213.296 251.384 205.616 251.672 204.08C252.44 203.984 255.896 203.888 256.664 203.888C259.16 203.888 264.632 204.176 266.84 203.408L268.856 216.08C268.952 216.56 269.432 216.848 269.816 216.944C275.096 217.04 280.376 217.808 285.752 217.808C286.232 217.808 289.976 217.328 289.976 216.56V213.584L287.864 199.664L279.32 162.128C278.648 159.44 275.672 152.72 271.928 151.76C271.352 151.76 268.952 151.76 268.376 151.76C267.608 151.76 265.112 151.76 264.92 151.76C262.52 151.856 255.032 151.952 254.264 152.048C249.368 152.24 247.16 152.912 246.584 157.04L227.576 217.136ZM255.992 189.104L260.696 168.752H261.08L264.344 189.392H256.856L255.992 189.104ZM293.644 216.56C293.644 217.808 293.932 218 295.084 218C301.228 218 307.372 217.808 313.324 216.272C313.516 216.272 314.188 215.984 314.38 215.792C314.764 215.504 315.436 214.832 315.436 214.736C316.396 165.2 316.972 161.552 316.972 156.464C316.972 156.176 316.972 154.832 316.972 154.544C316.588 154.064 316.108 153.68 315.436 153.392C313.612 153.392 304.588 153.104 302.572 153.104C302.476 153.104 300.94 153.008 300.46 153.008C300.172 153.008 298.636 153.104 298.252 153.104C297.868 153.296 296.812 153.872 296.236 154.352C296.14 154.448 295.948 154.544 295.948 154.544L295.756 156.272L293.644 215.6C293.644 215.696 293.644 216.368 293.644 216.56ZM333.44 196.016C333.44 202.352 333.152 208.976 334.112 215.408C334.592 218.288 336.896 218.384 339.392 218.576C339.392 218.576 341.12 218.576 341.6 218.576C342.176 218.576 343.616 218.576 343.712 218.576C344.288 218.48 348.608 217.808 349.184 217.712C352.16 217.328 353.984 217.424 356.288 215.408C356.576 215.216 357.248 214.64 357.248 214.064C357.536 211.856 357.536 210.704 357.536 208.592C357.536 197.84 355.712 183.824 354.848 173.168C354.848 172.976 354.656 172.112 354.656 171.92C354.752 171.92 355.04 171.92 355.136 171.92C358.4 171.92 361.568 172.304 364.832 172.304C365.024 172.304 365.792 172.304 365.888 172.304C366.56 172.304 369.536 172.208 370.112 172.112C370.976 171.824 370.976 171.248 371.168 170.384C371.552 167.504 372.416 160.208 372.416 159.92L372.128 153.584C372.032 150.992 365.12 151.568 362.528 151.472C359.552 151.28 345.152 151.088 342.08 150.992C341.792 150.992 338.528 150.992 337.376 150.992C332.96 150.992 327.968 150.128 324.32 150.128C322.4 150.128 321.824 151.952 322.016 153.776C321.344 158.192 320.576 162.608 320.576 167.12C320.576 170.96 322.688 170.384 326.144 170.384C328.928 170.384 331.616 169.424 334.304 169.424C334.304 177.104 333.44 188.24 333.44 196.016ZM371.974 189.68C371.974 190.928 372.07 194.192 372.07 194.48L373.606 202.928C373.606 203.024 373.99 203.888 374.086 204.272C378.694 216.464 390.982 217.616 398.47 217.712C420.55 218 425.446 199.376 426.79 183.056C426.79 182.864 426.79 180.944 426.79 180.368C426.79 179.792 426.79 178.064 426.79 177.968L425.446 166.736C425.062 163.472 423.238 159.728 421.222 157.136C417.478 152.336 408.934 150.224 403.174 150.224C400.678 150.224 398.47 150.8 396.166 151.28C395.782 151.376 392.038 152.24 390.79 152.624C386.086 153.776 380.134 158.48 377.926 162.416C373.222 170.768 371.974 180.368 371.974 189.68ZM391.558 183.44C391.558 167.504 405.574 164.24 407.302 175.952C407.302 176.624 407.302 179.408 407.302 180.08C407.302 182.192 407.398 183.824 407.014 185.84C406.918 186.128 406.63 187.28 406.534 187.568C406.342 188.432 404.806 192.656 404.422 193.52C403.654 195.728 401.062 199.184 398.566 199.184C392.422 199.184 391.558 187.76 391.558 183.44Z" fill="white"/>
<path d="M133.64 72.24C133.88 72.24 134.408 72.24 134.456 72.24C134.6 72.24 135.704 72.048 136.088 72C136.472 71.952 137.576 71.664 137.576 71.136V69.312L136.904 61.152V60.096C137.096 60.48 138.008 62.208 138.2 62.544C138.248 62.688 139.4 64.416 139.832 64.992C140.216 65.616 140.792 66.24 141.512 66.24C142.52 66.24 142.808 65.808 143.336 65.04C143.384 64.992 143.384 64.992 143.432 64.944C144.056 63.984 146.12 60.912 146.36 60.528C146.888 59.616 149.384 55.248 149.864 54.336V69.312C149.864 70.992 149.864 72.096 151.736 72.096C151.88 72.096 152.312 72.096 152.36 72.096C152.6 72.048 154.568 71.808 154.808 71.808C155.432 71.76 158.312 71.664 158.888 71.664C159.704 71.424 160.136 71.04 160.184 70.176L159.848 41.568C159.848 39.888 159.608 38.448 157.688 38.256C157.304 38.208 155.72 38.016 155.48 38.016C155.432 38.016 155.048 38.016 154.856 38.016C152.648 38.016 150.152 38.304 148.904 40.368L142.136 51.888L140.216 48.672L135.944 42.768C135.32 41.856 134.024 40.944 133.256 40.272C133.016 39.984 131.72 38.736 131.432 38.448C131.144 38.208 131.048 38.256 130.712 38.256C129.992 38.256 129.32 38.304 128.648 38.352C128.6 38.352 128.6 38.352 128.552 38.352C127.688 38.544 127.352 40.128 127.256 40.8L126.44 72.048L133.64 72.24ZM165.641 71.808C167.801 71.808 169.817 72.096 171.929 72.096C172.121 72.096 173.321 72.096 173.513 72.096C173.801 72.048 175.001 71.568 175.049 71.232L175.577 44.064C175.529 43.392 173.273 43.392 172.889 43.392C172.745 43.392 172.361 43.392 172.361 43.392L165.017 43.872C164.393 43.92 164.297 44.304 164.249 44.784C164.201 45.456 164.057 47.712 164.057 47.952C164.057 48.144 164.249 54.48 164.249 55.44C164.249 56.352 164.249 58.8 164.249 58.944C164.297 60.384 164.489 68.784 164.585 70.224C164.777 71.184 164.729 71.568 165.641 71.808ZM165.257 41.184C166.601 41.28 167.273 41.28 168.617 41.28C168.953 41.28 170.009 41.232 170.057 41.232C170.489 41.232 172.457 41.184 172.793 41.184C173.801 41.136 175.481 40.992 176.057 40.32C176.057 40.224 176.057 40.032 176.057 39.984C176.057 39.072 175.769 37.872 175.625 36.96C175.481 35.808 174.281 35.568 173.033 35.328C172.937 35.28 172.793 35.28 172.697 35.28C172.601 35.232 172.121 35.184 172.025 35.184H168.425C168.329 35.184 167.081 35.328 166.649 35.424C163.625 35.664 163.961 37.728 164.201 39.168C164.249 39.312 164.249 39.456 164.249 39.648C164.297 40.272 164.393 40.992 165.257 41.184ZM179.818 72.24C180.01 72.48 180.25 72.432 180.49 72.432C180.538 72.432 180.778 72.432 180.826 72.432C182.698 71.712 184.522 71.808 186.442 71.52C187.306 71.376 188.362 71.616 188.746 70.656C188.698 67.872 188.746 65.184 188.842 62.448H188.938L189.754 63.12C190.186 63.696 192.154 66.096 192.538 66.624C192.682 66.768 193.21 67.344 193.354 67.44C193.402 67.488 194.026 67.776 194.074 67.872C194.794 68.448 194.794 68.688 195.466 69.456C195.562 69.552 196.57 70.512 196.618 70.656C196.954 70.944 197.29 71.952 197.866 71.952H199.162C199.162 71.952 199.306 71.856 199.354 71.808C200.458 71.136 201.754 70.8 202.858 70.128C203.002 70.08 203.098 69.888 203.146 69.744C203.146 69.312 203.146 67.344 203.146 66.912C203.194 64.992 203.338 60.048 203.338 59.856L205.258 41.232V40.32C205.258 40.224 204.922 40.032 204.874 40.032C203.722 39.984 202.714 39.696 201.609 39.696C200.938 39.696 200.554 39.696 199.834 39.888H196.762C196.234 40.08 195.37 40.08 195.034 40.608C194.986 41.904 194.746 47.808 194.746 49.104C194.746 49.632 194.746 51.936 194.746 52.416L194.65 52.896C192.634 49.296 191.29 45.408 189.609 41.616C189.562 41.472 189.37 41.04 189.322 41.04C189.178 40.752 188.842 40.56 188.554 40.512L185.434 40.08L184.81 39.888C184.81 39.888 184.282 39.888 184.09 39.888C182.842 39.888 181.642 40.08 180.298 40.08C180.202 40.128 179.866 40.416 179.818 40.512C179.818 40.56 179.962 40.752 179.962 40.8C179.962 40.896 179.866 41.328 179.818 41.376C179.722 43.776 179.386 54.768 179.338 57.12C179.338 57.36 179.338 59.904 179.338 60.816C179.338 61.632 179.338 63.984 179.338 64.128C179.338 65.328 179.722 71.04 179.818 72.24ZM213.737 72.096C213.737 72.528 214.121 72.576 214.505 72.576L223.913 72C224.105 71.952 224.537 71.76 224.537 71.568L225.017 47.808C225.065 47.808 225.065 47.808 225.113 47.808C226.121 47.808 227.129 47.904 228.137 47.904C228.473 47.904 229.961 47.904 230.249 47.904C230.633 47.856 231.641 47.712 231.689 47.232L232.313 41.616C232.313 41.616 232.313 41.28 232.313 41.184C232.313 40.176 232.265 39.552 231.113 39.408C230.489 39.312 227.513 39.12 226.889 39.072C226.889 39.072 226.265 39.072 226.025 39.072C223.289 39.072 220.553 39.168 217.769 39.168C217.721 39.168 217.625 39.168 217.625 39.168C217.385 39.12 216.185 39.024 215.945 38.976H211.145C210.713 38.88 210.473 38.88 210.041 38.88C209.705 38.88 208.649 38.88 208.649 39.408C208.649 41.328 208.601 43.296 208.601 45.312C208.601 46.032 208.601 46.56 208.697 47.28C208.745 47.424 208.985 47.472 209.081 47.52C209.225 47.52 209.705 47.52 209.849 47.52C209.993 47.52 210.521 47.52 210.521 47.52C211.145 47.472 213.689 47.088 214.313 46.992C214.313 47.232 214.313 48.192 214.313 48.384C214.313 48.72 214.313 49.68 214.313 49.776C214.265 50.064 213.977 52.224 213.977 52.512C213.881 53.952 213.785 61.872 213.737 62.688C213.689 63.888 213.785 69.984 213.833 71.184C213.785 71.568 213.737 71.76 213.737 72.096ZM248.547 71.328C250.323 71.424 251.907 71.424 253.683 71.424C255.507 71.424 256.755 71.472 258.579 71.232C258.867 71.232 259.251 70.752 259.347 70.608L260.691 68.544L268.179 54.336L276.051 42C275.907 41.28 276.723 41.568 276.723 41.136C276.723 40.992 276.579 40.896 276.435 40.8C275.043 40.176 273.843 40.032 272.355 39.888C272.211 39.888 272.019 39.84 271.875 39.84C271.299 39.744 268.419 39.36 267.795 39.264C267.795 39.264 267.651 39.264 267.603 39.264C267.363 39.264 266.595 39.264 266.451 39.552L263.187 46.368C263.139 46.368 263.091 46.224 263.043 46.176C262.659 45.216 262.419 44.256 262.035 43.152C261.651 41.952 260.691 39.552 259.059 39.36C258.963 39.36 258.339 39.312 258.195 39.312C257.955 39.312 257.331 39.36 257.235 39.36C257.139 39.36 255.987 39.648 255.843 39.648C254.979 39.744 250.899 40.32 250.035 40.368L249.843 40.56C249.843 40.56 249.843 40.8 249.843 40.848C249.843 42 250.611 42.96 251.043 44.016C252.339 47.088 253.347 50.208 255.363 52.992V53.28L254.547 55.008L249.555 68.016C249.411 68.304 248.691 69.84 248.547 70.128C248.499 70.32 248.163 70.8 248.163 70.992C248.163 71.232 248.307 71.28 248.547 71.328ZM274.804 60.912C274.9 61.2 275.284 62.448 275.284 62.688C275.332 62.736 275.38 62.928 275.428 62.976C275.524 63.168 276.196 64.512 276.292 64.704C276.676 65.52 276.916 66.192 277.396 66.912C279.268 69.648 280.516 70.848 283.828 71.52C283.876 71.52 284.212 71.616 284.356 71.616C285.364 71.76 286.228 71.808 287.236 72.048C287.428 72.048 288.292 72.048 288.484 72.048C291.94 72.048 296.164 70.8 298.324 68.16C301.156 64.704 302.116 61.248 302.932 56.784C303.268 55.056 303.028 53.136 302.98 51.408C302.932 51.072 302.884 49.44 302.836 49.104C302.644 48.576 301.876 45.984 301.78 45.456C301.732 45.408 301.684 45.216 301.636 45.168C300.868 43.584 300.244 41.664 298.612 40.512C298.564 40.464 297.892 40.08 297.796 40.032C296.452 39.216 295.348 38.784 293.668 38.784C293.62 38.784 293.572 38.784 293.572 38.784C287.716 38.16 281.476 39.984 278.068 44.448C277.732 44.976 276.292 47.664 276.052 48.24C274.756 51.264 274.516 55.632 274.66 58.8C274.66 59.136 274.756 60.624 274.804 60.912ZM284.644 56.88C284.548 54.336 286.324 47.952 289.732 47.952C293.092 47.952 294.34 52.128 294.484 54.576C294.628 57.216 292.852 61.776 290.116 62.784C289.972 62.784 289.54 62.832 289.396 62.832C286.372 62.832 284.788 59.232 284.644 56.88ZM305.643 55.632C305.643 61.776 306.459 67.392 312.843 70.272C315.627 71.52 317.979 71.904 321.147 71.904C321.387 71.904 322.635 71.904 322.971 71.904C330.603 70.512 332.763 66.624 334.203 59.712C334.443 58.848 334.875 56.256 334.971 55.536C334.971 55.44 335.019 55.44 335.019 55.392L335.931 45.024C335.931 44.976 335.931 44.304 335.931 44.016C335.931 42.672 335.883 41.808 335.787 40.32C335.787 40.32 335.691 40.08 335.691 40.032V39.984C335.691 39.936 335.691 39.936 335.691 39.936C335.547 39.168 335.595 39.648 323.979 38.544C323.595 38.544 323.067 38.784 322.923 39.168C323.019 44.832 322.923 52.656 322.251 58.416C322.203 58.752 321.819 60.384 321.723 60.768C321.531 61.632 320.859 63.216 319.659 63.216C317.835 63.216 317.019 60.624 316.827 59.28C316.827 58.8 316.779 56.448 316.779 55.872C316.779 55.584 316.779 55.344 316.779 55.056C316.779 50.208 317.307 44.592 318.219 38.64V38.544C318.219 38.352 317.595 38.112 317.547 38.064C317.403 38.064 316.923 38.064 316.827 38.064C316.635 38.064 316.155 38.064 316.107 38.064C315.627 38.064 311.979 38.16 311.499 38.16C309.915 38.208 308.139 38.064 306.507 38.304C306.075 38.352 306.027 38.736 305.979 39.12C305.979 39.168 305.979 39.168 305.979 39.216L305.691 53.328C305.691 53.52 305.643 55.152 305.643 55.632ZM338.666 54.48C338.666 55.2 338.666 57.264 338.666 57.408C338.762 61.104 339.098 70.512 339.146 70.848L339.386 72.144C339.386 72.432 340.25 72.336 340.346 72.336C340.442 72.336 340.97 72.336 341.018 72.336C341.738 72.288 344.138 72.192 344.426 72.192C345.338 72.192 348.554 71.712 348.938 71.04C348.938 70.656 348.938 69.024 348.938 68.688C348.938 66.576 348.746 64.512 348.746 62.448C348.746 62.304 348.794 61.68 348.794 61.536C350.282 62.88 350.954 65.568 351.386 67.44C351.53 67.92 351.866 71.184 352.01 71.712C352.202 72 352.442 72.048 352.73 72.048C352.826 72.048 353.066 72 353.066 72C354.026 71.904 360.266 72 362.09 71.52C362.474 71.472 362.81 71.184 363.05 70.848C363.05 70.656 363.05 69.6 363.05 69.408C363.05 64.56 360.266 60 356.042 57.648C356.186 57.312 357.338 56.928 357.674 56.64C358.106 56.304 359.498 55.2 359.642 55.056C361.994 53.04 362.906 47.808 362.906 44.88C362.906 40.08 358.97 39.024 355.13 38.304C354.842 38.304 353.594 38.304 353.306 38.304C352.874 38.304 351.578 38.304 351.482 38.304C351.098 38.304 349.178 38.4 348.794 38.4C348.554 38.496 347.546 38.784 347.258 38.832C347.114 38.832 345.722 38.88 345.53 38.88C343.514 39.12 341.498 39.696 339.434 39.888C339.242 40.032 339.098 40.272 339.098 40.464C339.002 42.096 338.714 49.824 338.666 51.408C338.666 51.6 338.666 53.712 338.666 54.48ZM348.17 49.296C348.17 48.912 348.17 46.992 348.17 46.56C348.602 45.984 350.33 45.552 351.002 45.552C352.202 45.552 352.634 46.944 352.634 47.952C352.634 50.16 351.338 53.712 348.698 53.712C348.65 53.712 348.41 53.664 348.362 53.664C348.362 53.616 348.266 53.328 348.266 53.328C348.122 51.936 348.17 50.784 348.17 49.296Z" fill="black"/>
<defs>
<filter id="filter0_d_504_33" x="0" y="106" width="582.5" height="209.5" filterUnits="userSpaceOnUse" color-interpolation-filters="sRGB">
<feFlood flood-opacity="0" result="BackgroundImageFix"/>
<feColorMatrix in="SourceAlpha" type="matrix" values="0 0 0 0 0 0 0 0 0 0 0 0 0 0 0 0 0 0 127 0" result="hardAlpha"/>
<feOffset dy="9"/>
<feGaussianBlur stdDeviation="6"/>
<feComposite in2="hardAlpha" operator="out"/>
<feColorMatrix type="matrix" values="0 0 0 0 0.827451 0 0 0 0 0.0862745 0 0 0 0 0.368627 0 0 0 0.27 0"/>
<feBlend mode="normal" in2="BackgroundImageFix" result="effect1_dropShadow_504_33"/>
<feBlend mode="normal" in="SourceGraphic" in2="effect1_dropShadow_504_33" result="shape"/>
</filter>
<linearGradient id="paint0_linear_504_33" x1="137" y1="109" x2="616.5" y2="322.5" gradientUnits="userSpaceOnUse">
<stop stop-color="#C92212"/>
<stop offset="0.0001" stop-color="#C92212"/>
<stop offset="1" stop-color="#700B0F"/>
</linearGradient>
</defs>
</svg>
