<svg width="331" height="258" viewBox="0 0 331 258" fill="none" xmlns="http://www.w3.org/2000/svg">
<path d="M329.62 133.877C329.689 108.977 316.016 87.3096 295.911 75.8331C296.224 73.259 296.41 70.5653 296.41 67.8685C296.41 31.1087 266.612 1.311 229.853 1.311C213.935 1.311 199.313 6.90413 187.81 16.2657C181.129 12.7648 173.516 10.7503 165.5 10.7503C153.384 10.7503 142.284 15.2256 133.805 22.6392C123.457 16.1945 111.226 12.4039 98.1157 12.4039C68.7256 12.4039 43.7552 31.5191 34.9473 57.9305C15.5442 63.2988 1.311 81.1159 1.311 102.25C1.311 122.531 14.4147 139.707 32.6745 145.837C37.4766 172.265 57.9487 193.218 84.0574 198.866C81.3833 202.055 79.7193 206.196 79.7193 210.698C79.7193 220.863 87.9513 229.095 98.1157 229.095C108.28 229.095 116.512 220.863 116.512 210.698C116.512 206.203 114.909 202.058 112.187 198.864C120.372 197.097 127.997 193.835 134.723 189.417C146.895 202.941 164.546 211.387 184.103 211.387C202.364 211.387 218.921 204.021 230.935 192.124C240.439 197.397 251.414 200.432 263.063 200.432C299.822 200.432 329.619 170.636 329.62 133.877Z" fill="#151515" fill-opacity="0.4" stroke="#212117" stroke-width="1.378"/>
<path d="M115.823 235.365C109.93 235.365 105.143 240.152 105.143 246.044C105.143 251.937 109.93 256.724 115.823 256.724C121.715 256.724 126.502 251.937 126.502 246.044C126.502 240.152 121.715 235.365 115.823 235.365Z" fill="#151515" fill-opacity="0.5" stroke="#212117" stroke-width="1.378"/>
<path opacity="0.4" d="M184.172 208.287C166.042 208.287 148.66 200.448 136.595 186.883C135.793 185.982 134.522 185.915 133.589 186.475L133.575 186.484L133.56 186.493C126.537 191.198 118.768 194.469 110.386 196.104L110.368 196.108L110.351 196.112C109.587 196.303 108.921 196.871 108.632 197.641C108.331 198.445 108.531 199.346 109.129 199.949C111.898 202.852 113.411 206.607 113.411 210.629C113.411 219.135 106.487 225.994 98.0468 225.994C89.5373 225.994 82.6132 219.066 82.6132 210.629C82.6132 206.674 84.1281 202.851 86.8959 199.949C87.4941 199.346 87.6936 198.445 87.3923 197.641C87.1138 196.898 86.5304 196.302 85.6564 196.108L85.6484 196.106L85.6403 196.105C60.0865 191.062 39.912 170.482 35.4088 144.863C35.2907 143.992 34.5724 143.347 33.8671 143.082L33.8526 143.077L33.8378 143.072C16.0702 137.308 4.1359 120.899 4.1359 102.181C4.1359 82.788 17.2225 65.7 35.9343 60.6806C36.7089 60.4847 37.3103 59.902 37.5213 59.1854C46.2513 33.0135 70.5149 15.3664 98.1157 15.3664C110.383 15.3664 122.309 18.9097 132.601 25.5883C133.49 26.1787 134.588 26.0708 135.362 25.3932L135.367 25.3885C143.649 17.9893 154.304 13.8506 165.431 13.8506C172.829 13.8506 180.226 15.6836 186.738 19.2106L186.748 19.216L186.758 19.221C187.54 19.6123 188.595 19.5259 189.3 18.9255C200.683 9.52162 215.064 4.34243 229.853 4.34243C264.887 4.34243 293.379 32.8342 293.379 67.8683C293.379 70.462 293.242 73.1147 292.835 75.8988L292.833 75.9106L292.832 75.9225C292.74 76.7493 293.092 77.7621 294.032 78.1984C314.126 89.4494 326.657 110.709 326.657 133.737C326.657 168.771 298.166 197.263 263.131 197.263C252.225 197.263 241.456 194.468 231.985 189.085L231.955 189.068L231.924 189.054C231.054 188.667 229.92 188.849 229.228 189.541L229.225 189.544C217.229 201.676 201.215 208.287 184.172 208.287ZM263.063 200.432L263.065 200.432C299.89 200.293 329.689 170.567 329.689 133.806C329.689 108.977 316.086 87.3097 295.911 75.8999C296.224 73.3263 296.41 70.6333 296.41 67.9372C296.41 31.1775 266.613 1.37972 229.853 1.37972C213.935 1.37972 199.313 6.97286 187.81 16.3345C181.129 12.8335 173.516 10.819 165.5 10.819C153.385 10.819 142.286 15.2936 133.807 22.7063C123.458 16.1943 111.226 12.4037 98.1157 12.4037C68.7257 12.4037 43.7552 31.5189 34.9473 57.9304C15.5442 63.2987 1.311 81.1157 1.311 102.249C1.311 122.531 14.4147 139.707 32.6745 145.837C37.4766 172.265 57.9487 193.218 84.0574 198.866C81.3833 202.054 79.7193 206.196 79.7193 210.698C79.7193 220.863 87.9513 229.095 98.1157 229.095C108.28 229.095 116.512 220.863 116.512 210.698C116.512 206.202 114.909 202.058 112.187 198.864C120.372 197.097 127.997 193.835 134.723 189.417C146.895 202.94 164.546 211.387 184.103 211.387C202.364 211.387 218.921 204.02 230.935 192.124C240.439 197.397 251.414 200.432 263.063 200.432Z" fill="#151515" fill-opacity="0.5" stroke="#212117" stroke-width="1.378"/>
<path opacity="0.4" d="M115.823 235.365C109.93 235.365 105.143 240.152 105.143 246.044C105.143 251.937 109.93 256.724 115.823 256.724C121.715 256.724 126.502 251.937 126.502 246.044C126.502 240.152 121.715 235.365 115.823 235.365ZM115.823 253.761C111.587 253.761 108.106 250.28 108.106 246.044C108.106 241.808 111.587 238.327 115.823 238.327C120.058 238.327 123.539 241.808 123.539 246.044C123.539 250.28 120.058 253.761 115.823 253.761Z" fill="#151515" fill-opacity="0.5" stroke="#212117" stroke-width="1.378"/>
<g style="mix-blend-mode:hard-light">
<path d="M87.0552 127.289V118.097C83.6584 119.377 81.96 121.358 81.96 124.037C81.96 125.693 83.6584 126.777 87.0552 127.289ZM91.6127 132.692V146.006C93.4221 145.391 94.9327 144.487 96.1447 143.292C97.4932 141.926 98.1674 140.45 98.1674 138.862C98.1674 135.892 95.9825 133.835 91.6127 132.692ZM91.6127 108.112V112.439H91.7152C93.3538 112.439 95.2229 112.72 97.3225 113.284C100.071 114.018 101.445 114.957 101.445 116.1C101.445 117.602 100.685 118.353 99.166 118.353C98.4832 118.353 97.2798 118.174 95.5558 117.816C93.8488 117.44 92.5345 117.261 91.6127 117.278V127.699C95.3851 128.04 98.3381 129.278 100.472 131.411C102.418 133.391 103.391 135.781 103.391 138.581C103.391 142.012 102.204 144.854 99.8317 147.107C97.7321 149.087 94.9925 150.393 91.6127 151.024V157.835C91.6127 158.501 91.3908 159.047 90.947 159.474C90.5203 159.917 89.9741 160.139 89.3084 160.139C87.8063 160.139 87.0552 159.388 87.0552 157.886V151.357C78.7253 151.238 74.5604 149.078 74.5604 144.879C74.5604 143.343 75.2688 142.575 76.6856 142.575C77.4878 142.575 78.2559 142.891 78.9899 143.522C80.0824 144.461 80.9102 145.075 81.4735 145.366C82.8391 146.048 84.6996 146.441 87.0552 146.543V132.026H86.8504C84.2046 131.924 81.9173 131.275 79.9885 130.08C77.5988 128.612 76.4039 126.572 76.4039 123.961C76.4039 121.622 77.4963 119.42 79.6812 117.355C81.6954 115.443 84.1534 114.052 87.0552 113.181V108.265C87.0552 107.6 87.2771 107.045 87.7209 106.601C88.1818 106.157 88.7451 105.935 89.4108 105.935C90.8788 105.935 91.6127 106.661 91.6127 108.112ZM137.879 151.05C135.285 151.05 131.589 148.771 126.793 144.213L119.137 136.507V136.865L119.112 150.282C119.112 151.972 118.369 152.816 116.884 152.816C115.911 152.816 115.134 152.39 114.554 151.536C114.076 150.836 113.837 150.077 113.837 149.257C113.837 145.263 113.957 139.289 114.196 131.335C114.435 123.38 114.554 117.415 114.554 113.437C114.554 112.703 114.793 112.08 115.271 111.568C115.766 111.056 116.372 110.8 117.089 110.8C117.823 110.8 118.429 111.056 118.907 111.568C119.402 112.08 119.649 112.703 119.649 113.437C119.649 115.093 119.547 117.671 119.342 121.17C119.137 124.55 119.043 127.136 119.06 128.928C121.348 126.76 123.934 124.037 126.818 120.76L134.167 112.234C134.747 111.568 135.396 111.235 136.113 111.235C136.795 111.235 137.401 111.491 137.931 112.004C138.46 112.516 138.724 113.139 138.724 113.873C138.724 114.999 136.522 118.003 132.118 122.885C129.08 126.214 125.939 129.474 122.696 132.666C124.744 134.817 127.954 137.906 132.323 141.935L135.012 144.188C135.985 144.939 137.034 145.502 138.161 145.878C139.509 146.322 140.184 147.166 140.184 148.413C140.184 148.993 140.005 149.548 139.646 150.077C139.202 150.725 138.613 151.05 137.879 151.05ZM172.419 150.768C170.849 150.768 169.483 148.754 168.323 144.726C167.879 143.189 167.324 140.501 166.658 136.66C164.917 136.899 162.639 137.326 159.822 137.94L153.011 139.349C152.158 141.585 150.698 144.854 148.633 149.155C148.087 150.111 147.344 150.589 146.406 150.589C145.723 150.589 145.108 150.341 144.562 149.846C144.033 149.351 143.768 148.737 143.768 148.003C143.768 147.184 145.057 144.068 147.635 138.657C147.344 138.214 147.199 137.701 147.199 137.121C147.199 135.739 148.036 134.851 149.708 134.458C151.654 130.805 154.112 126.606 157.082 121.861C161.128 115.392 163.646 112.157 164.636 112.157C165.984 112.157 166.906 113.096 167.401 114.974L169.014 123.577L172.829 141.371L174.288 145.417C174.783 146.799 175.031 147.721 175.031 148.182C175.031 148.916 174.766 149.531 174.237 150.026C173.708 150.521 173.102 150.768 172.419 150.768ZM163.381 121.503L156.058 133.306C158.124 132.777 161.256 132.137 165.455 131.386L163.381 121.503ZM203.272 118.097C202.18 118.097 200.806 117.986 199.15 117.764L195.028 117.227C194.635 122.194 194.439 126.939 194.439 131.463C194.439 132.657 194.473 134.134 194.541 135.892C194.61 137.65 194.644 139.127 194.644 140.322C194.644 141.926 194.584 143.386 194.464 144.7L202.53 144.598C203.247 144.598 203.844 144.854 204.322 145.366C204.817 145.861 205.065 146.475 205.065 147.209C205.065 147.96 204.817 148.592 204.322 149.104C203.844 149.599 203.247 149.846 202.53 149.846C201.574 149.846 200.14 149.872 198.228 149.923C196.316 149.957 194.883 149.974 193.927 149.974C192.8 149.974 191.11 150.128 188.857 150.435C186.621 150.76 184.931 150.922 183.788 150.922C183.071 150.922 182.465 150.666 181.97 150.154C181.492 149.659 181.253 149.044 181.253 148.31C181.253 147.576 181.492 146.953 181.97 146.441C182.465 145.929 183.071 145.673 183.788 145.673C184.897 145.673 186.732 145.494 189.292 145.135C189.463 143.753 189.548 142.174 189.548 140.398C189.548 139.221 189.489 137.787 189.369 136.097C189.267 134.39 189.216 132.956 189.216 131.795C189.216 127.852 189.455 122.928 189.933 117.022L186.604 117.124L183.275 117.201C182.541 117.201 181.927 116.954 181.432 116.459C180.937 115.964 180.689 115.332 180.689 114.564C180.689 112.976 181.492 112.106 183.096 111.952C184.479 111.816 187.065 111.747 190.854 111.747C194.251 111.747 198.51 112.114 203.631 112.848C205.15 113.07 205.909 113.984 205.909 115.588C205.909 116.39 205.619 117.03 205.039 117.508C204.527 117.901 203.938 118.097 203.272 118.097ZM242.319 117.662C241.055 117.662 239.109 117.56 236.481 117.355C233.92 117.167 231.974 117.082 230.643 117.099H228.825C228.876 119.454 229.107 123.278 229.516 128.569C229.892 133.502 230.08 137.335 230.08 140.066C230.08 140.663 230.139 141.568 230.259 142.78C230.378 143.992 230.438 144.905 230.438 145.519C230.438 146.68 230.25 147.679 229.875 148.515C229.397 149.642 228.654 150.205 227.647 150.205C226.965 150.205 226.35 149.966 225.804 149.488C225.258 149.01 224.985 148.395 224.985 147.644C224.985 147.388 225.027 147.004 225.113 146.492C225.198 145.98 225.241 145.596 225.241 145.34C225.241 144.504 225.181 143.249 225.061 141.576C224.959 139.903 224.908 138.64 224.908 137.787C224.908 135.346 224.711 131.915 224.319 127.494C223.909 122.715 223.679 119.284 223.628 117.201L221.298 117.227C217.559 117.227 214.623 116.954 212.49 116.407C211.107 116.049 210.416 115.204 210.416 113.873C210.416 113.173 210.638 112.558 211.082 112.029C211.594 111.432 212.251 111.159 213.053 111.21C213.65 111.244 215.016 111.398 217.15 111.671C218.857 111.875 220.239 111.978 221.298 111.978C222.322 111.978 223.875 111.961 225.957 111.927C228.04 111.875 229.593 111.85 230.617 111.85C231.932 111.85 233.878 111.944 236.455 112.132C239.05 112.319 241.004 112.413 242.319 112.413C243.053 112.413 243.667 112.669 244.162 113.181C244.657 113.676 244.905 114.299 244.905 115.05C244.905 115.784 244.657 116.407 244.162 116.919C243.667 117.415 243.053 117.662 242.319 117.662ZM263.621 151.562C258.808 151.562 254.728 150.119 251.382 147.235C247.832 144.162 246.057 140.202 246.057 135.354C246.057 129.448 247.806 124.08 251.306 119.249C255.214 113.89 260.088 111.21 265.926 111.21C271.541 111.21 275.715 112.473 278.446 114.999C281.297 117.628 282.722 121.776 282.722 127.443C282.722 133.349 281.117 138.674 277.908 143.42C274.221 148.848 269.459 151.562 263.621 151.562ZM265.926 116.459C261.743 116.459 258.202 118.541 255.3 122.706C252.62 126.53 251.28 130.746 251.28 135.354C251.28 138.649 252.5 141.329 254.941 143.394C257.28 145.34 260.173 146.313 263.621 146.313C267.769 146.313 271.191 144.222 273.888 140.04C276.295 136.302 277.499 132.103 277.499 127.443C277.499 123.363 276.585 120.496 274.759 118.84C273.018 117.252 270.073 116.459 265.926 116.459Z" fill="#B6B6B6"/>
</g>
<g style="mix-blend-mode:hard-light">
<path d="M103.609 91.2527C103.066 91.2527 102.618 90.9709 102.266 90.4075C101.964 89.9245 101.692 89.1196 101.451 87.9927L100.907 85.3968C100.495 83.787 99.841 80.2353 98.9455 74.7417L95.927 83.8423L95.0366 86.7099C94.6744 87.8468 94.2971 88.7775 93.9047 89.502C93.4821 90.2666 92.9136 90.649 92.1992 90.649C91.6056 90.649 91.1377 90.327 90.7956 89.6831C90.5743 89.2605 90.373 88.7222 90.1919 88.0682L89.7543 86.3929C88.738 82.8412 87.8426 79.0379 87.0678 74.9831L86.5245 77.6847L84.5776 85.6534C84.4971 86.5891 84.2456 87.9726 83.823 89.8038C83.5211 90.5886 83.0231 90.981 82.3288 90.981C81.8358 90.981 81.4434 90.8049 81.1516 90.4528C80.9001 90.1509 80.7743 89.7786 80.7743 89.3359C80.7743 87.6557 81.1214 85.593 81.8157 83.1481L83.4759 77.0659L84.3512 72.3118C84.7939 70.0882 85.2618 68.6343 85.7548 67.9501C86.1573 67.3665 86.6553 67.0748 87.2489 67.0748C87.9029 67.0748 88.3909 67.447 88.7129 68.1916C89.1053 69.0871 89.5279 70.9132 89.9806 73.6701C90.5139 76.9804 91.344 80.5623 92.4709 84.4158C93.96 80.5421 95.2479 76.5075 96.3345 72.3118L96.7873 70.1083C96.9684 69.2229 97.2048 68.5085 97.4966 67.9652C97.889 67.2206 98.4273 66.8484 99.1115 66.8484C99.9768 66.8484 100.636 67.6835 101.089 69.3537C101.25 69.9272 101.446 71.1145 101.677 72.9155C102.271 77.4633 103.01 81.3471 103.896 84.5668L104.635 87.1626C105.018 88.5511 105.209 89.4064 105.209 89.7283C105.209 90.161 105.043 90.5232 104.711 90.815C104.389 91.1068 104.022 91.2527 103.609 91.2527ZM111.351 70.8931C110.868 70.8931 110.451 70.7221 110.099 70.38C109.747 70.0379 109.57 69.6254 109.57 69.1424C109.57 68.6594 109.747 68.2469 110.099 67.9048C110.451 67.5627 110.868 67.3917 111.351 67.3917C111.834 67.3917 112.247 67.5627 112.589 67.9048C112.941 68.2469 113.117 68.6594 113.117 69.1424C113.117 69.6254 112.941 70.0379 112.589 70.38C112.247 70.7221 111.834 70.8931 111.351 70.8931ZM112.031 83.1481C112.031 83.7518 112.046 84.6573 112.076 85.8647C112.116 87.062 112.136 87.9625 112.136 88.5662C112.136 89.0089 112 89.3712 111.729 89.6529C111.457 89.9346 111.1 90.0755 110.657 90.0755C110.224 90.0755 109.867 89.9346 109.586 89.6529C109.314 89.3712 109.178 89.0089 109.178 88.5662C109.178 87.9625 109.158 87.062 109.118 85.8647C109.088 84.6573 109.072 83.7518 109.072 83.1481C109.072 82.2023 109.123 81.0251 109.223 79.6165C109.324 78.1978 109.374 77.0156 109.374 76.0698C109.374 75.617 109.51 75.2498 109.782 74.968C110.064 74.6863 110.421 74.5455 110.853 74.5455C111.286 74.5455 111.638 74.6863 111.91 74.968C112.192 75.2498 112.332 75.617 112.332 76.0698C112.332 77.0156 112.282 78.1978 112.181 79.6165C112.081 81.0251 112.031 82.2023 112.031 83.1481ZM128.708 91.0716C127.842 91.0716 127.354 90.5987 127.244 89.6529L126.821 86.3477C126.68 85.1705 126.61 84.0687 126.61 83.0424C126.61 82.7607 126.625 82.2828 126.655 81.6087C126.695 80.9345 126.715 80.4566 126.715 80.1749C126.715 78.0016 126.313 76.915 125.508 76.915C124.381 76.915 123.305 77.584 122.278 78.9222C121.353 80.1397 120.628 81.6791 120.105 83.5405C120.085 83.9329 120.04 84.4259 119.969 85.0195C119.909 85.5226 119.879 86.0106 119.879 86.4835C119.879 86.7853 119.909 87.2381 119.969 87.8418C120.029 88.4455 120.06 88.8983 120.06 89.2001C120.06 89.6529 119.919 90.0201 119.637 90.3018C119.365 90.5836 119.013 90.7244 118.581 90.7244C118.138 90.7244 117.781 90.5836 117.509 90.3018C117.237 90.0201 117.102 89.6529 117.102 89.2001C117.102 88.8983 117.066 88.4455 116.996 87.8418C116.936 87.2381 116.905 86.7853 116.905 86.4835C116.905 85.4471 116.976 84.0134 117.117 82.1822C117.268 80.3409 117.343 78.9021 117.343 77.8658C117.343 77.5438 117.323 77.0659 117.283 76.432C117.252 75.7981 117.237 75.3202 117.237 74.9982C117.237 74.5656 117.378 74.2134 117.66 73.9418C117.952 73.66 118.309 73.5192 118.732 73.5192C119.657 73.5192 120.165 74.1732 120.256 75.4812L120.301 77.247C121.991 74.9932 123.727 73.8663 125.508 73.8663C127.118 73.8663 128.24 74.5756 128.874 75.9943C129.306 76.9401 129.543 78.3387 129.583 80.19V81.7143L129.568 83.1179C129.568 83.953 129.673 85.0346 129.885 86.3627C130.106 87.6808 130.217 88.7524 130.217 89.5774C130.217 90.0201 130.071 90.3773 129.779 90.649C129.497 90.9307 129.14 91.0716 128.708 91.0716ZM143.407 77.1413C143.196 77.1413 142.945 77.1313 142.653 77.1112C142.371 77.091 142.125 77.081 141.913 77.081C141.682 77.081 140.998 77.1564 139.861 77.3074L140.148 86.2269L140.163 86.891L140.178 87.6607C140.218 89.8642 139.69 90.9659 138.593 90.9659C138.191 90.9659 137.838 90.8351 137.537 90.5735C137.245 90.3119 137.099 89.9849 137.099 89.5925C137.099 89.2102 137.114 88.6367 137.144 87.872C137.174 87.1073 137.189 86.5338 137.189 86.1515L136.888 77.3375C136.153 77.3074 135.036 77.2218 133.537 77.081C132.642 76.9602 132.194 76.4622 132.194 75.5868C132.194 75.1441 132.33 74.7769 132.601 74.4851C132.873 74.1933 133.22 74.0474 133.643 74.0474L136.812 74.304C136.812 73.7908 136.787 73.1067 136.737 72.2514C136.696 71.3861 136.676 70.7623 136.676 70.38C136.676 69.9574 136.822 69.6103 137.114 69.3386C137.406 69.0569 137.763 68.916 138.186 68.916C139.091 68.916 139.619 69.6555 139.77 71.1346C139.8 71.5069 139.816 71.9546 139.816 72.4778L139.785 73.3532L139.77 74.2889C141.018 74.1279 141.732 74.0474 141.913 74.0474C142.96 74.0474 143.644 74.0977 143.966 74.1983C144.58 74.3996 144.887 74.8725 144.887 75.617C144.887 76.0597 144.746 76.427 144.464 76.7188C144.192 77.0005 143.84 77.1413 143.407 77.1413ZM170.287 76.5376L165.065 87.8267C163.777 90.5735 162.791 92.8726 162.107 94.7239L161.111 97.6518C160.849 98.3762 160.396 98.7385 159.752 98.7385C159.33 98.7385 158.963 98.5976 158.651 98.3159C158.349 98.0442 158.198 97.7021 158.198 97.2896C158.198 96.2834 159.285 93.3706 161.458 88.5511L156.055 78.1525L155.376 77.0508C155.104 76.588 154.968 76.2006 154.968 75.8887C154.968 75.4761 155.124 75.1139 155.436 74.802C155.758 74.4901 156.115 74.3342 156.508 74.3342C156.97 74.3342 157.328 74.5102 157.579 74.8624C159.29 77.2369 161.126 80.6176 163.088 85.0044L165.322 79.7976C166.126 77.9966 166.901 76.4471 167.646 75.1491C167.968 74.5857 168.39 74.304 168.914 74.304C169.326 74.304 169.688 74.4499 170 74.7417C170.322 75.0334 170.483 75.3806 170.483 75.783C170.483 76.0044 170.418 76.2559 170.287 76.5376ZM178.874 90.8904C177.184 90.8904 175.73 90.2666 174.513 89.019C173.154 87.6305 172.44 85.7641 172.37 83.4197C172.309 81.1458 172.883 79.1436 174.09 77.413C175.499 75.3705 177.461 74.3493 179.976 74.3493C181.989 74.3493 183.513 75.2699 184.549 77.1112C185.374 78.6003 185.772 80.3912 185.741 82.484C185.711 84.7177 185.128 86.6243 183.991 88.204C182.703 89.995 180.997 90.8904 178.874 90.8904ZM179.78 77.413C178.301 77.4029 177.149 78.1072 176.324 79.5259C175.67 80.6629 175.343 81.9608 175.343 83.4197C175.343 84.8787 175.74 86.0156 176.535 86.8306C177.199 87.5047 177.979 87.8418 178.874 87.8418C179.921 87.8418 180.821 87.4595 181.576 86.6948C182.431 85.8496 182.884 84.7076 182.934 83.2688C183.075 79.375 182.024 77.4231 179.78 77.413ZM201.8 81.1861C201.8 81.9105 201.805 82.9972 201.815 84.446C201.825 85.8949 201.83 86.9815 201.83 87.706C201.83 87.9273 201.845 88.2644 201.875 88.7172C201.915 89.1699 201.936 89.507 201.936 89.7283C201.936 90.161 201.79 90.5131 201.498 90.7848C201.206 91.0665 200.849 91.2074 200.426 91.2074C199.652 91.2074 199.159 90.7295 198.947 89.7736C197.69 90.4276 196.241 90.7546 194.601 90.7546C193.283 90.7546 192.191 90.4628 191.326 89.8793C190.37 89.2353 189.801 88.2946 189.62 87.057C189.228 84.3907 189.032 82.0162 189.032 79.9334C189.032 78.555 189.183 76.9854 189.484 75.2246C189.625 74.3493 190.103 73.9116 190.918 73.9116C191.351 73.9116 191.713 74.0524 192.005 74.3342C192.297 74.6058 192.442 74.958 192.442 75.3906C192.442 75.8535 192.367 76.593 192.216 77.6092C192.075 78.6254 192.005 79.4002 192.005 79.9334C192.005 81.6137 192.06 83.0525 192.171 84.2498C192.281 85.4471 192.447 86.408 192.669 87.1325C193.001 87.3136 193.328 87.4544 193.65 87.555C193.972 87.6456 194.289 87.6909 194.601 87.6909C195.949 87.6909 197.373 87.4746 198.872 87.0419L198.857 83.9782L198.827 81.0502C198.827 78.877 198.922 76.9904 199.113 75.3906C199.224 74.465 199.712 74.0021 200.577 74.0021C201.01 74.0021 201.372 74.143 201.664 74.4247C201.956 74.7064 202.091 75.0586 202.071 75.4812L201.8 81.1861ZM217.315 78.8468C217.244 80.1045 216.741 80.7333 215.805 80.7333C214.94 80.7333 214.507 80.2353 214.507 79.2392C214.507 79.048 214.492 78.6958 214.462 78.1827L214.417 76.915C212.827 77.1061 211.554 77.5539 210.599 78.2582C209.703 78.9122 208.959 79.8982 208.365 81.2163L208.395 89.4869C208.395 90.5031 207.897 91.0112 206.901 91.0112C206.016 91.0112 205.573 90.5031 205.573 89.4869V78.892C205.573 78.56 205.583 78.062 205.603 77.3979C205.633 76.7338 205.648 76.2358 205.648 75.9038C205.648 74.8875 206.091 74.3794 206.976 74.3794C207.962 74.3794 208.46 75.2145 208.471 76.8848C210.402 75.0234 212.545 74.0927 214.9 74.0927C215.715 74.0927 216.324 74.3996 216.726 75.0133C217.128 75.6271 217.33 76.5527 217.33 77.7903C217.33 78.3135 217.325 78.6657 217.315 78.8468Z" fill="#B6B6B6"/>
</g>
</svg>
