<svg width="397" height="397" viewBox="0 0 397 397" fill="none" xmlns="http://www.w3.org/2000/svg">
<path d="M199.175 2.26228L198.499 1.64333L197.824 2.26353L171.311 26.6155L138.514 11.6898L137.68 11.31L137.229 12.1086L119.554 43.4324L83.7117 39.4062L82.8024 39.3041L82.6201 40.2007L75.452 75.452L40.2008 82.6201L39.3041 82.8024L39.4063 83.7116L43.4324 119.554L12.1086 137.229L11.3101 137.68L11.6899 138.514L26.6161 171.313L2.26228 197.925L1.64333 198.601L2.26353 199.276L26.6155 225.789L11.6899 258.586L11.3101 259.42L12.1086 259.871L43.4324 277.546L39.4063 313.388L39.3041 314.298L40.2008 314.48L75.452 321.648L82.6201 356.899L82.8024 357.796L83.7117 357.694L119.554 353.668L137.229 384.991L137.68 385.79L138.514 385.41L171.311 370.485L197.824 394.836L198.499 395.457L199.175 394.838L225.787 370.484L258.586 385.41L259.42 385.79L259.871 384.991L277.546 353.668L313.388 357.694L314.298 357.796L314.48 356.899L321.648 321.648L356.899 314.48L357.796 314.298L357.694 313.388L353.668 277.546L384.991 259.871L385.79 259.42L385.41 258.586L370.484 225.787L394.738 199.275L395.354 198.601L394.739 197.926L370.483 171.314L385.41 138.514L385.79 137.68L384.991 137.229L353.668 119.554L357.694 83.7116L357.796 82.8024L356.899 82.6201L321.648 75.452L314.48 40.2007L314.298 39.3041L313.388 39.4062L277.546 43.4324L259.871 12.1086L259.42 11.31L258.586 11.6898L225.787 26.616L199.175 2.26228Z" fill="#151515" fill-opacity="0.3" stroke="#212117" stroke-width="2"/>
<path d="M394.737 199.275L395.355 198.6L394.737 197.925L370.484 171.413L385.41 138.614L385.789 137.782L384.993 137.33L353.667 119.556L357.693 83.8119L357.796 82.9024L356.899 82.72L321.648 75.5519L314.48 40.3007L314.297 39.4038L313.388 39.5063L277.645 43.5323L259.87 12.1076L259.419 11.3104L258.585 11.6898L225.787 26.616L199.275 2.36214L198.6 1.74466L197.925 2.36214L171.412 26.6166L138.513 11.6893L137.681 11.3118L137.23 12.1065L119.456 43.4324L83.7115 39.4062L82.802 39.3038L82.6197 40.2007L75.4516 75.452L40.2003 82.62L39.3034 82.8024L39.4059 83.7119L43.432 119.456L12.1061 137.23L11.3105 137.682L11.6894 138.514L26.6157 171.313L2.36178 197.825L1.74429 198.5L2.36178 199.175L26.6157 225.687L11.6894 258.486L11.3105 259.318L12.1061 259.77L43.432 277.544L39.4059 313.288L39.3034 314.198L40.2003 314.38L75.4516 321.548L82.6197 356.799L82.802 357.696L83.7115 357.594L119.456 353.568L137.23 384.893L137.681 385.689L138.514 385.31L171.312 370.384L197.825 394.638L198.5 395.255L199.175 394.638L225.687 370.384L258.485 385.31L259.318 385.689L259.769 384.893L277.544 353.568L313.288 357.594L314.197 357.696L314.38 356.799L321.548 321.548L356.799 314.38L357.696 314.198L357.593 313.288L353.567 277.544L384.893 259.77L385.688 259.319L385.31 258.487L370.483 225.788L394.737 199.275ZM349.306 274.73L348.732 275.056L348.806 275.711L352.704 310.503L318.399 317.52L317.752 317.653L317.62 318.3L310.603 352.604L275.811 348.706L275.154 348.633L274.829 349.208L257.58 379.711L225.613 365.19L225.011 364.916L224.524 365.363L198.698 389.044L172.774 365.362L172.286 364.916L171.685 365.19L139.819 379.71L122.57 349.208L122.245 348.633L121.589 348.706L86.6963 352.605L79.6793 318.3L79.5469 317.652L78.8994 317.52L44.4952 310.503L48.3934 275.711L48.4669 275.055L47.8918 274.73L17.3887 257.48L31.91 225.514L32.1841 224.91L31.7352 224.423L7.95649 198.597L31.6379 172.674L32.083 172.187L31.8101 171.586L17.2886 139.62L47.7919 122.37L48.367 122.045L48.2934 121.389L44.3952 86.5971L78.7995 79.5798L79.4469 79.4477L79.5793 78.8004L86.5963 44.4952L121.489 48.3938L122.145 48.4671L122.47 47.8922L139.719 17.39L171.585 31.91L172.186 32.1839L172.674 31.7383L198.598 8.0556L224.424 31.737L224.911 32.1839L225.513 31.9104L257.48 17.389L274.729 47.8922L275.054 48.4673L275.711 48.3937L310.503 44.4955L317.52 78.8004L317.652 79.4473L318.299 79.5797L352.604 86.5966L348.706 121.389L348.632 122.045L349.207 122.37L379.711 139.62L365.189 171.586L364.916 172.187L365.361 172.674L389.044 198.599L365.363 224.424L364.916 224.912L365.189 225.514L379.711 257.481L349.306 274.73Z" fill="#151515" fill-opacity="0.3" stroke="#212117" stroke-width="2"/>
</svg>
