<svg width="170" height="145" viewBox="0 0 170 145" fill="none" xmlns="http://www.w3.org/2000/svg">
<path d="M0.799986 110.234C0.653321 110.571 0.653475 110.571 0.653719 110.571L0.654664 110.571L0.658182 110.573L0.671718 110.579L0.724467 110.602C0.770937 110.621 0.839862 110.651 0.930352 110.689C1.11133 110.765 1.37858 110.876 1.72495 111.016C2.41765 111.297 3.42691 111.694 4.69553 112.162C7.23245 113.098 10.8081 114.317 14.9643 115.453C23.2064 117.706 33.7727 119.64 43.0563 118.345C51.5401 128.475 62.939 136.369 76.4773 140.604C114.236 152.414 154.41 131.383 166.22 93.6236C178.019 55.8994 156.988 15.7257 119.229 3.91586C81.4699 -7.89407 41.2962 13.1367 29.4863 50.8959C25.4767 63.7157 25.2526 76.8374 28.214 89.0003C23.9046 97.0572 15.2709 108.582 0.767533 109.868L0.653321 110.571L0.799986 110.234Z" fill="#151515" fill-opacity="0.4" stroke="#212117" stroke-width="0.735014"/>
</svg>
