<svg width="216" height="756" viewBox="0 0 216 756" fill="none" xmlns="http://www.w3.org/2000/svg">
<path d="M98.701 432.484L215.426 0.5L49.8093 434.319L44.6288 447.864L56.9326 459.358L110.627 509.707L14.085 756H101.885L170.419 511.218L175.924 491.521L161.893 480.782L98.701 432.484Z" fill="url(#paint0_linear_504_15)"/>
<path d="M99.3482 512.081L0 756H28.0075L119.531 513.215L121.851 507.009L117.156 502.746L54.0182 445.543L215.425 0.5L37.1274 445.004L35.1847 449.861L39.1241 453.692L99.3482 512.081Z" fill="#1A1A1A"/>
<path d="M165.184 494.867C157.575 520.338 150.182 545.809 142.627 571.28L118.397 653.63L88.2852 756H115.429L140.9 659.944L162.918 577.001C170.203 549.317 177.65 521.687 184.881 494.003L186.5 487.743L181.589 484.128L107.389 429.408L215.425 0.5L91.3072 430.487L89.9041 435.29L94.0054 438.528L165.184 494.867Z" fill="#1A1A1A"/>
<defs>
<linearGradient id="paint0_linear_504_15" x1="114.747" y1="756" x2="114.747" y2="0.49973" gradientUnits="userSpaceOnUse">
<stop stop-color="#FFE4AF"/>
<stop offset="1" stop-color="#FCB116"/>
</linearGradient>
</defs>
</svg>
