<svg width="216" height="756" viewBox="0 0 216 756" fill="none" xmlns="http://www.w3.org/2000/svg">
<path d="M105.17 246.293L201.767 0H113.913L45.432 244.782L39.9276 264.479L53.9044 275.218L117.151 323.516L0.425781 755.5L165.988 321.681L171.169 308.136L158.865 296.642L105.17 246.293Z" fill="url(#paint0_linear_504_13)"/>
<path d="M50.6126 261.133C58.2215 235.662 65.6146 210.191 73.1696 184.72L97.3996 102.37L127.566 0H100.422L74.9505 96.0564L52.933 179C45.6478 206.683 38.2008 234.313 30.9696 261.997L29.3506 268.256L34.2614 271.872L108.462 326.592L0.425781 755.5L124.544 325.513L125.947 320.71L121.845 317.472L50.6126 261.133Z" fill="#1A1A1A"/>
<path d="M116.449 243.919L215.851 0H187.79L96.3203 242.785L93.9459 248.991L98.6407 253.254L161.779 310.457L0.425781 755.5L178.67 310.996L180.666 306.139L176.673 302.308L116.449 243.919Z" fill="#1A1A1A"/>
<defs>
<linearGradient id="paint0_linear_504_13" x1="101.083" y1="755.5" x2="101.083" y2="0" gradientUnits="userSpaceOnUse">
<stop stop-color="#FFE4AF"/>
<stop offset="1" stop-color="#FCB116"/>
</linearGradient>
</defs>
</svg>
